<?xml version="1.0" encoding="utf-8"?>
<!-- Generator: Adobe Illustrator 21.0.2, SVG Export Plug-In . SVG Version: 6.00 Build 0)  -->
<svg version="1.1" id="Слой_1" xmlns="http://www.w3.org/2000/svg" xmlns:xlink="http://www.w3.org/1999/xlink" x="0px" y="0px"
	 viewBox="0 0 2000 2000" style="enable-background:new 0 0 2000 2000;" xml:space="preserve">
<style type="text/css">
	.st0{fill:#FFDF57;}
	.st1{fill:#FFFFFF;}
	.st2{fill:#201000;}
	.st3{fill:#FF98E1;}
	.st4{fill:#F76567;}
	.st5{fill:#853EF3;}
	.st6{fill:#00DA9F;}
</style>
<g id="Window_1">
	<rect id="BG_1_" x="661.7" y="284.4" className="st0" width="1070.8" height="672.2"/>
	<g id="Man_1_">
		<g id="Head_2_">
			<path className="st1" d="M1408.4,598.9c-4.1,22.5-15.2,45.9-12,43.2c0,0,33.6,122.4,36,144.1c2.4,21.6-20.1,48-52.8,48
				c-46.8,0-62.4-33.6-69.6-57.6l-19.2-62.4c0,0-43.2,7.2-69.6-14.4c-30.6-25.1-35.2-129.1-64.7-254.2c-4.2-18.2-9-36.7-14.5-55.5
				l232.9-2.4l15.5,105.7c0,0,3.2,1.1,6.1-1.7c18.4-17.6,83.2-28.5,91.2,28C1497.2,586.9,1408.4,598.9,1408.4,598.9z"/>
			<path className="st2" d="M1379.6,839c-55.9,0-69.7-45.9-74.2-61l-18-58.5c-11.9,1.3-46.1,2.9-69.3-16
				c-21.4-17.5-30.3-67.8-42.7-137.3c-6.3-35.8-13.5-76.4-23.7-119.5c-4.3-18.7-9.2-37.3-14.4-55.3c-0.4-1.4-0.1-3,0.8-4.2
				s2.3-1.9,3.8-1.9l232.9-2.4c0,0,0,0,0.1,0c2.4,0,4.4,1.7,4.8,4.1l14.7,100.2c13.4-11.6,42.7-18.9,65.2-11.2
				c12.9,4.4,29,15.5,32.9,43c2.6,18-1.3,33.9-11.4,47.4c-19.7,26-57,34.6-68.5,36.7c-2.5,11.9-6.5,23.4-9.3,31.3
				c-0.8,2.3-1.7,4.7-2.2,6.4c0,0,0,0,0,0.1c1.4,5,33.7,123.1,36.2,144.8c1.2,11.2-3.2,23.5-12.2,33.5
				C1413.6,831.8,1397.1,839,1379.6,839z M1290.7,709.4c2.1,0,4,1.3,4.6,3.4l19.2,62.4c7,23.3,21.3,54.2,65,54.2
				c14.8,0,28.8-6.1,38.2-16.6c7.1-7.9,10.8-17.7,9.8-26.1c-2.2-19.4-30.7-124.5-35.3-141.1c-2.5-2.3-1.4-5.3,1.7-14.3
				c2.9-8.3,7.3-21,9.6-33.2c0.4-2,2-3.6,4.1-3.9c0.5-0.1,45.1-6.4,65.6-33.6c8.5-11.3,11.7-24.8,9.5-40.2
				c-2.6-18.2-11.5-30.1-26.6-35.3c-20.9-7.2-47.1,1-56.6,10.1c-4.8,4.6-10.3,3-10.9,2.8c-1.7-0.6-3-2.1-3.3-3.9l-14.9-101.6
				l-222.4,2.3c4.6,16.3,8.9,32.9,12.8,49.7c10.2,43.4,17.4,84.1,23.8,120c11.5,65,20.6,116.3,39.3,131.6
				c24.4,20,65.4,13.5,65.8,13.4C1290.2,709.4,1290.5,709.4,1290.7,709.4z"/>
			<path className="st2" d="M1444.4,512.6c-18.1,6.3-31.9,20.8-36.7,39.5c-1.5,6,7.7,8.5,9.3,2.6c3.9-15.3,15-27.6,30-32.8
				C1452.8,519.8,1450.3,510.5,1444.4,512.6z"/>
			<path className="st2" d="M1390.7,480.8c-1,0.3-1.6,0.5-1.6,0.5l-14.4-93.6l-232.9,2.4c5.5,18.8,10.3,37.4,14.5,55.5
				c19-35.4,60-54.4,101.7-50.1c54.8,5.6,98.1,55.4,127.1,99.4c1.5,2.3,2.7-7.9,4.8-8.9C1390,484.2,1390.3,482.5,1390.7,480.8z"/>
			<path className="st2" d="M1331.8,578.6c4.2,8.8,1,18.9-7.5,23.7c-5.4,3,0.1,10.9,5.5,7.9c11.8-6.7,16.9-22.5,11-34.8
				C1338.2,569.8,1329.2,573,1331.8,578.6z"/>
			<path className="st2" d="M1240.5,586.5c-24.4-24.9-14.2-59.9-4.6-89c1.9-5.9-7.3-8.4-9.3-2.6c-10.8,32.9-20,70.7,7.1,98.4
				C1238.1,597.7,1244.9,590.9,1240.5,586.5z"/>
			<path className="st2" d="M1299.1,494.1h-2c-7.5,0-7.5,11.7,0,11.7h2C1306.6,505.8,1306.6,494.1,1299.1,494.1z"/>
			<path className="st2" d="M1196.3,503.7h-2c-7.5,0-7.5,11.7,0,11.7h2C1203.8,515.4,1203.8,503.7,1196.3,503.7z"/>
			<path className="st2" d="M1187.5,477.2c-3.2,2.1-6.4,4.3-9.6,6.4c-5.1,3.4-0.3,11.7,4.8,8.3c3.2-2.1,6.4-4.3,9.6-6.4
				C1197.4,482,1192.6,473.7,1187.5,477.2z"/>
			<path className="st2" d="M1303.5,452.5c-4.8-0.5-9.6-1.1-14.4-1.6c-2.6-0.3-4.8,2.4-4.8,4.8c0,2.8,2.2,4.5,4.8,4.8
				c4.8,0.5,9.6,1.1,14.4,1.6c2.6,0.3,4.8-2.4,4.8-4.8C1308.3,454.5,1306.1,452.8,1303.5,452.5z"/>
		</g>
		<g id="Body_2_">
			<path className="st2" d="M930.6,942.3c-1.1,0-2.1-0.4-3-1.1c-2.1-1.7-2.4-4.7-0.7-6.8c133.8-163.5,180.8-194,279.6-181
				c60.4,7.9,104.1,18.4,104.5,18.5c2.6,0.6,4.2,3.2,3.5,5.8c-0.6,2.6-3.2,4.2-5.8,3.5c-0.4-0.1-43.7-10.4-103.5-18.3
				c-94.4-12.4-140,17.4-270.9,177.5C933.4,941.7,932,942.3,930.6,942.3z"/>
			<path className="st2" d="M1682.7,961.5c-2.5,0-4.6-2-4.8-4.5c-1.7-29-5.5-68.7-14-93.2c-4.5-13-13.9-24.3-28-33.7
				c-0.2-0.1-0.3-0.2-0.5-0.4c-30.5-20.3-81-32.2-154.2-36.5c-12.9-0.8-24.4-1.2-33.6-1.5c-6.3-0.2-11.6-0.4-15.4-0.7
				c-2.6-0.2-4.7-2.4-4.5-5.1c0.2-2.6,2.4-4.7,5.1-4.5c3.8,0.2,8.9,0.4,15.2,0.6c9.3,0.3,20.8,0.7,33.9,1.5
				c75.4,4.4,127.5,17,159.5,38.5c0.2,0.1,0.3,0.2,0.5,0.4c15.6,10.6,26.2,23.4,31.3,38.3c8.8,25.5,12.7,66.1,14.5,95.7
				c0.2,2.6-1.9,4.9-4.5,5.1C1682.9,961.5,1682.8,961.5,1682.7,961.5z"/>
			<polygon className="st0" points="1299.1,750.2 1277.9,775.8 1313.1,868.6 1348.3,825.4 			"/>
			<path className="st2" d="M1313.1,873.4c-0.3,0-0.5,0-0.8-0.1c-1.7-0.3-3.1-1.4-3.7-3l-35.2-92.8c-0.6-1.6-0.3-3.4,0.8-4.8l21.2-25.6
				c1-1.2,2.5-1.8,4-1.7c1.5,0.1,2.9,0.9,3.8,2.2l49.2,75.2c1.1,1.7,1,4-0.3,5.7l-35.2,43.2C1315.9,872.8,1314.6,873.4,1313.1,873.4
				z M1283.4,776.7l31.3,82.4l27.7-34l-43.7-66.8L1283.4,776.7z"/>
			<polygon className="st0" points="1348.3,825.4 1382,879.8 1452.4,788.6 1426.4,749 			"/>
			<path className="st2" d="M1382,884.6c-0.1,0-0.2,0-0.2,0c-1.6-0.1-3-0.9-3.8-2.3l-33.6-54.4c-1.2-1.9-0.9-4.4,0.7-6l78-76.4
				c1-1,2.4-1.5,3.9-1.3c1.4,0.2,2.7,0.9,3.5,2.1l26,39.6c1.1,1.7,1,3.9-0.2,5.6l-70.4,91.2C1384.8,884,1383.4,884.6,1382,884.6z
				 M1354.4,826.2l27.9,45.3l64.1-83l-20.9-31.9L1354.4,826.2z"/>
		</g>
		<g id="Had">
			<path className="st1" d="M1488.6,956.7c-2.4-50.6-4.5-116.2-7.2-168.3c-2-38.7-4.4-69.9-7.4-82.2c-8.8-35.2-40.8-88.8-21.6-95.2
				c9.5-3.2,15.2,0,36,42.4c15.7,31.9,28,52.1,32.8,42.4c9.1-18.1,17.6-155.3,41.6-153.7c24,1.6,8,59.2,0,110.4
				c28.8-81.6,33.6-107.3,49.6-104.1c8,1.6,12.8,8.5,12,17.6c4-5.6,23.2-8.8,26.2,5.8c0.5,2.5,1,5.7,1,9.4
				c2.1-1.7,21.3-13.1,23.2,5.6c1.6,16-24.9,94-27.2,108.9c-2.2,18-6,72.5-9.1,130.3c-2.6,47.5-4.7,97.3-5.2,130.6"/>
			<path className="st2" d="M1488.6,961.5c-2.6,0-4.7-2-4.8-4.6c-1-21.1-1.9-44.9-2.9-69.2c-1.3-33.8-2.7-68.7-4.3-99.1
				c-2.3-44.3-4.7-70.9-7.3-81.3c-2.8-11.2-8.2-24.7-13.3-37.7c-9.7-24.3-18-45.3-12.8-56.4c1.5-3.3,4.2-5.7,7.7-6.8
				c14-4.7,21.4,3.3,41.8,44.8c15,30.5,21.7,39.1,24.6,41.5c2.7-7.1,5.7-26.4,8.8-46.8c10.1-66.4,18-109.9,37.1-108.5
				c4.8,0.3,8.8,2.4,11.7,6c7.2,9.3,6.3,28.2,2.8,51.7c14-40.5,20.5-54.4,35.8-51.3c7.7,1.5,13.1,6.9,15.1,14.2
				c4-1.4,8.7-1.8,13-0.9c7.3,1.5,12.3,6.6,13.8,13.8c0.2,0.9,0.3,1.8,0.5,2.7c4.4-1.8,10.1-3.1,15.2-1c3.5,1.4,7.8,5,8.7,13.9
				c1,10.3-7.1,38.9-17.8,75.3c-4.5,15.2-8.7,29.6-9.5,34.7c-2.1,17.5-5.9,72.2-9,129.8c-2.9,52.4-4.7,99.9-5.2,130.4
				c0,2.6-2.2,4.7-4.8,4.7c0,0,0,0-0.1,0c-2.6,0-4.8-2.2-4.7-4.9c0.4-30.7,2.3-78.3,5.2-130.8c3.1-57.8,6.9-112.7,9.1-130.6
				c0.9-5.9,4.8-19.2,9.8-36.1c7.3-24.9,18.3-62.4,17.4-71.7c-0.2-2.3-0.9-5.1-2.7-5.9c-3.5-1.5-10.9,2.2-12.7,3.6
				c-1.4,1.1-3.4,1.4-5.1,0.5c-1.6-0.8-2.7-2.5-2.7-4.3c0-3.2-0.4-6-0.9-8.5c-0.7-3.5-2.8-5.6-6.4-6.3c-5.2-1.1-10.3,1.2-11.2,2.4
				c-1.3,1.8-3.5,2.5-5.6,1.7c-2-0.7-3.3-2.8-3.1-4.9c0.6-6.6-2.6-11.4-8.2-12.5c-8.5-1.7-14,13.2-30.2,60.6c-4,11.6-8.5,25-14,40.4
				c-0.8,2.3-3.3,3.7-5.7,3.1c-2.4-0.6-4-2.9-3.6-5.4c1.5-9.7,3.3-19.6,5-29.2c5.7-31.4,11.5-63.8,4.1-73.3
				c-1.2-1.5-2.6-2.2-4.7-2.4c-0.1,0-0.1,0-0.2,0c-11.4,0-22.2,70.3-26.7,100.4c-4.1,27.2-6.8,44.1-10.1,50.6
				c-2.2,4.4-5.8,5-7.4,5.1c-6.8,0-14.5-7.8-34-47.5c-21.1-42.9-25.1-41.6-30.2-40c-1,0.3-1.6,0.9-2,1.8c-3.5,7.4,5.3,29.4,13,48.8
				c5.3,13.3,10.8,27,13.7,38.9c2.8,11.2,5.2,37.6,7.6,83.1c1.6,30.4,3,65.4,4.3,99.2c1,24.3,1.9,48,2.9,69.1c0.1,2.6-1.9,4.9-4.6,5
				C1488.8,961.5,1488.7,961.5,1488.6,961.5z"/>
			<path className="st2" d="M1620.6,560.1c-10.4,34.4-20.6,65.2-31.1,99.6c-1.8,5.9,7.5,8.5,9.3,2.6c10.4-34.4,20.6-65.2,31.1-99.6
				C1631.7,556.7,1622.4,554.2,1620.6,560.1z"/>
			<path className="st2" d="M1647.5,577.8c-9.3,32-18.5,63.9-27.8,95.9c-1.7,5.9,7.5,8.5,9.3,2.6c9.3-32,18.5-63.9,27.8-95.9
				C1658.5,574.4,1649.2,571.9,1647.5,577.8z"/>
			<path className="st2" d="M1519.2,693.4c-6-1-8.6,8.3-2.6,9.3c31.1,5,52.2,30.3,51.1,61.9c-0.2,6.2,9.4,6.2,9.6,0
				C1578.6,729.1,1554.4,699.1,1519.2,693.4z"/>
		</g>
	</g>
	<g id="Top">
		<rect x="661.7" y="284.4" className="st3" width="1070.8" height="115.2"/>
		<path className="st2" d="M1698.9,366.1c-1.2,0-2.5-0.5-3.4-1.4l-43.2-43.2c-1.9-1.9-1.9-4.9,0-6.8c1.9-1.9,4.9-1.9,6.8,0l43.2,43.2
			c1.9,1.9,1.9,4.9,0,6.8C1701.3,365.6,1700.1,366.1,1698.9,366.1z"/>
		<path className="st2" d="M1655.6,366.1c-1.2,0-2.5-0.5-3.4-1.4c-1.9-1.9-1.9-4.9,0-6.8l43.2-43.2c1.9-1.9,4.9-1.9,6.8,0
			c1.9,1.9,1.9,4.9,0,6.8l-43.2,43.2C1658.1,365.6,1656.9,366.1,1655.6,366.1z"/>
		<path className="st2" d="M1605.2,366.1h-50.4c-2.7,0-4.8-2.1-4.8-4.8v-45.6c0-2.7,2.1-4.8,4.8-4.8h50.4c2.7,0,4.8,2.1,4.8,4.8v45.6
			C1610,363.9,1607.9,366.1,1605.2,366.1z M1559.6,356.5h40.8v-36h-40.8V356.5z"/>
		<path className="st2" d="M1499.6,344.5h-48c-2.7,0-4.8-2.1-4.8-4.8c0-2.7,2.1-4.8,4.8-4.8h48c2.7,0,4.8,2.1,4.8,4.8
			C1504.4,342.3,1502.2,344.5,1499.6,344.5z"/>
	</g>
	<g id="Button_1_">
		<rect x="1060.2" y="849.8" className="st4" width="297.7" height="57.6"/>
		<path className="st1" d="M1290.7,883.4h-163.3c-2.7,0-4.8-2.1-4.8-4.8s2.1-4.8,4.8-4.8h163.3c2.7,0,4.8,2.1,4.8,4.8
			S1293.4,883.4,1290.7,883.4z"/>
	</g>
</g>
<g id="Window_2">
	<g id="Window">
		<path className="st1" d="M978.6,600.1V1192H224.7V600.1c0-25.8,21-46.8,46.8-46.8h660.2C957.6,553.3,978.6,574.3,978.6,600.1z"/>
		<path className="st2" d="M978.6,1196.8H224.7c-2.7,0-4.8-2.2-4.8-4.8V600.1c0-28.5,23.2-51.6,51.6-51.6h660.2
			c28.5,0,51.6,23.2,51.6,51.6V1192C983.4,1194.6,981.3,1196.8,978.6,1196.8z M229.5,1187.2h744.3v-587c0-23.2-18.8-42-42-42H271.6
			c-23.2,0-42,18.8-42,42V1187.2z"/>
		<path className="st1" d="M978.6,628.2v-28.1c0-25.9-21-46.8-46.8-46.8H271.6c-25.9,0-46.8,21-46.8,46.8v28.1H978.6z"/>
		<path className="st2" d="M978.6,633H224.7c-2.7,0-4.8-2.1-4.8-4.8v-28.1c0-28.5,23.2-51.6,51.6-51.6h660.2c28.5,0,51.6,23.2,51.6,51.6
			v28.1C983.4,630.9,981.3,633,978.6,633z M229.5,623.4h744.3v-23.3c0-23.2-18.8-42-42-42H271.6c-23.2,0-42,18.8-42,42V623.4z"/>
		<circle className="st5" cx="268" cy="591.7" r="14.4"/>
		<circle className="st6" cx="329.2" cy="591.7" r="14.4"/>
		<circle className="st4" cx="390.4" cy="591.7" r="14.4"/>
	</g>
	<g id="Man">
		<g id="Head_1_">
			<path className="st2" d="M652.9,637.7c-0.4-3.8-1.4-7.4-3.1-10.6h-48.3c-5,3.8-9.6,7.9-13.6,11.3c-12.2,10.4-22.9,22.2-32.2,35.2
				c-0.3-4.6-1.6-8.9-5.1-12.5c-7-7.1-15.8-5.7-23,0.3c-23,19.1-35,57.1-41,85.1c-0.6,3,2,4.5,4.4,4.1c0,0,0,0.1,0.1,0.1
				c0.7,0.6,1.3,1.2,2,1.7c8,1,14.9,3.4,18.8,6.3c0,0-6.8-28,34.2-50.9c35.3-19.8,61.9-20.4,81.6-0.4c0.1-0.1,0.3-0.2,0.5-0.4
				c0.6,0,1.1-0.1,1.8-0.5c11-6,29.7-19.7,18.7-34.5c-1.9-2.6-4.2-4.1-6.7-4.9C648.8,658.6,654.1,648.9,652.9,637.7z"/>
			<path className="st2" d="M613.7,995.1c-1.7,0-3.2-0.9-4.1-2.3l-64-104c-0.7-1.1-0.9-2.3-0.6-3.6c0.9-4,2.2-10.4,2.8-14.5
				c-16.7-8-29.5-29.3-33.9-37.3c-24.7,3.2-47.1-2.1-60.3-14.4c-9.7-9.1-14.2-21.7-12.9-36.5c1-10.9,5.4-19.5,13-25.7
				c13.7-11,32.4-10,39.9-9.1c4.8,0.6,9.3,1.7,13.1,3.1c0.9-11.1,7.3-30.6,36.9-47.2c37.7-21.1,66.3-21,87.4,0.4
				c7.6,7.7,14.1,18,19.9,31.6c2.3,5.5,4.8,11.1,7.1,16.6c14.8,34,28.7,66.2,24.7,85.9c0,0,0,0,0,0c-3.8,18.8-18.7,32.5-44.2,40.5
				l-1,17.5c0,0.3-0.1,0.5-0.1,0.8c-3.3,14.1-5.9,28.6-8.5,42.6c-3.1,16.9-6.3,34.4-10.7,51.9c-0.5,1.9-2,3.3-3.9,3.6
				C614.2,995.1,613.9,995.1,613.7,995.1z M554.8,885.4l56.9,92.5c3-13.5,5.5-26.9,7.9-40c2.6-14,5.2-28.5,8.5-42.7l1.2-20.4
				c0.1-2,1.5-3.8,3.5-4.3c24.1-6.9,37.5-18.1,40.7-34.2h0c3.4-16.7-10.6-49-24.1-80.1c-2.4-5.5-4.8-11.1-7.2-16.6
				c-5.2-12.3-11.3-21.9-17.9-28.7c-17.9-18.2-42-17.8-75.9,1.2c-37,20.7-32.1,44.7-31.9,45.7c0.4,2-0.4,4-2.1,5.1
				c-1.7,1.1-3.8,1.1-5.5-0.1c-3.3-2.4-9.7-4.5-16.6-5.4c-13-1.6-25.2,1-32.7,7c-5.6,4.5-8.8,10.9-9.5,19.1
				c-1.1,11.9,2.2,21.5,9.8,28.6c11.5,10.7,32.8,15.1,55.7,11.5c2.1-0.4,4.1,0.7,5.1,2.6c0.2,0.3,15.2,30.6,33.7,37.1
				c2,0.7,3.3,2.6,3.2,4.7C557.7,871.5,555.7,881,554.8,885.4z M678.2,837.2L678.2,837.2L678.2,837.2z"/>
			<path className="st2" d="M618.8,795.8c-0.7,0-1.4-0.1-2-0.5c-2.4-1.1-3.4-4-2.3-6.4c6.1-12.9,0.8-25.4-21-49.6c-1.8-2-1.6-5,0.3-6.8
				c2-1.8,5-1.6,6.8,0.3c21.2,23.5,31.7,40.9,22.6,60.2C622.4,794.8,620.6,795.8,618.8,795.8z"/>
			<circle className="st2" cx="557.7" cy="765.4" r="6"/>
			<circle className="st2" cx="624.1" cy="743" r="6"/>
			<path className="st2" d="M556.9,741.7c-2-1.9-4.9-1.6-6.8,0.1c-2,1.8-4,3.6-6,5.4c-1.9,1.7-1.6,5.1,0.1,6.8c2,1.9,4.9,1.6,6.8-0.1
				c2-1.8,4-3.6,6-5.4C559,746.8,558.7,743.4,556.9,741.7z"/>
			<path className="st2" d="M619.3,720.6h-6c-6.2,0-6.2,9.6,0,9.6h6C625.5,730.2,625.5,720.6,619.3,720.6z"/>
			<path className="st2" d="M502.7,799.7c-1.8,0-3.5-1-4.3-2.7c-2.5-5-15.2-15.4-24.6-13.6c-2.6,0.5-5.1-1.2-5.7-3.8
				c-0.5-2.6,1.2-5.1,3.8-5.7c14.5-2.9,31,10.5,35.1,18.7c1.2,2.4,0.2,5.3-2.1,6.4C504.2,799.6,503.4,799.7,502.7,799.7z"/>
			<path className="st2" d="M518.4,731c14.4,36.3,20.6,77.2,48.8,92c23.4,12.3,56-38.4,104-19.2c0,0,25.6,44-14.4,64.8
				c-40,20.8-81.6,18.4-109.6-1.6c-12.7-9-25.1-19.4-31.2-35.2c-7.4-19.2-7.2-45.6-7.2-77.6C508.8,695.8,518.4,731,518.4,731z"/>
			<path className="st1" d="M587,843.1c-6.7,3.8-14.3,0.7-16.1-6.9c-1.4-6-10.8-3.8-9.3,2.2c3.2,13.5,17.9,20,30,13.1
				C596.9,848.5,592.4,840,587,843.1z"/>
		</g>
		<g id="Body_1_">
			<path className="st2" d="M706.5,1196.8H333.7c-1.1,0-2.2-0.4-3.1-1.1c-0.6-0.5-1.2-1.1-1.8-1.6c-44.5-41.9-17-105.6,17.9-186.2
				c10.2-23.6,20.8-48,30.3-73.7c34.8-93.8,83.2-78.9,134.5-63.1c12.6,3.9,25.7,7.9,39,10.4c2.6,0.5,4.3,3,3.8,5.6
				c-0.5,2.6-3,4.3-5.6,3.8c-13.8-2.6-27.1-6.7-40-10.7c-50.8-15.6-91-28-122.6,57.3c-9.6,25.9-20.2,50.4-30.5,74.1
				c-33.4,77.1-59.8,138.1-20.4,175.2c0.1,0.1,0.2,0.2,0.3,0.3h366.9c3.7-28.1-17.7-50.6-34.2-57.2c-43.7-17.5-104-17.1-187.4-16.6
				c-14.3,0.1-29.2,0.2-44.8,0.2c-1.6,0-3-0.8-3.9-2c-0.9-1.3-1.1-2.9-0.6-4.4l43.2-120c0.9-2.5,3.7-3.8,6.1-2.9
				c2.5,0.9,3.8,3.6,2.9,6.1l-40.9,113.6c13.1,0,25.7-0.1,37.9-0.2c84.5-0.5,145.5-0.9,191,17.3c20.9,8.3,46.9,36.2,39.4,71.9
				C710.7,1195.2,708.8,1196.8,706.5,1196.8z"/>
			<path className="st2" d="M438.1,1103.4c-9.1,0.4-18.3,0.7-27.4,1.1c-6.1,0.2-6.9,9.8-0.7,9.6c9.1-0.4,18.3-0.7,27.4-1.1
				C443.4,1112.7,444.2,1103.1,438.1,1103.4z"/>
			<path className="st2" d="M849,1051.1c-1.5,0-3-0.7-3.9-2.1c-0.5-0.8-54.8-79-92.8-131.2c-36.6-50.3-49.6-47.7-113-25.5
				c-2.5,0.9-5.2-0.4-6.1-2.9c-0.9-2.5,0.4-5.2,2.9-6.1c65-22.8,83.7-26.4,123.9,28.9c38,52.3,92.3,130.5,92.9,131.3
				c1.5,2.2,1,5.2-1.2,6.7C850.9,1050.8,849.9,1051.1,849,1051.1z"/>
			<path className="st2" d="M524.5,1196.8c-2.6,0-4.8-2.1-4.8-4.8c-0.3-42.4,13.7-72.7,40.5-87.4c2.3-1.3,5.2-0.4,6.5,1.9
				c1.3,2.3,0.4,5.2-1.9,6.5c-23.8,13.2-35.7,39.7-35.5,79C529.3,1194.6,527.1,1196.7,524.5,1196.8
				C524.5,1196.8,524.5,1196.8,524.5,1196.8z"/>
		</g>
	</g>
</g>
<g id="Window_3">
	<g id="BG">
		<rect x="700.1" y="927.9" className="st6" width="518.6" height="849.9"/>
		<path className="st1" d="M806.7,1027.7l-57.6-57.6c-4.4-4.4-11.2,2.4-6.8,6.8l57.6,57.6C804.3,1038.9,811.1,1032.1,806.7,1027.7z"/>
		<path className="st1" d="M797.6,967.7c-20.9,20.9-41.8,41.8-62.7,62.7c-4.4,4.4,2.4,11.2,6.8,6.8c2.5-2.5,5-5,7.5-7.5l55.2-55.2
			C808.7,970.1,801.9,963.3,797.6,967.7z"/>
	</g>
	<g id="Woman">
		<g id="Body">
			<path className="st5" d="M1218.7,1539.3v238.5H763.1c1.8-52.4,6.5-117.3,18.6-165.7c24-96,122.6-78.3,232.9-86.4
				C1065.7,1521.9,1161.6,1524.1,1218.7,1539.3z"/>
			<path className="st2" d="M762,1782.6C762,1782.6,762,1782.6,762,1782.6c-2.7,0-4.8-2.2-4.8-4.9c3.2-250.3,74.7-251.9,183-254.3
				l6.3-0.1c2.6-0.2,4.9,2,4.9,4.7c0.1,2.7-2,4.8-4.7,4.9l-6.3,0.1c-53.8,1.2-96.3,2.1-125.5,32.1c-31.8,32.7-46.7,98.3-48.1,212.7
				C766.8,1780.5,764.6,1782.6,762,1782.6z"/>
			<path className="st2" d="M848,1777.8h-9.6c-1.5-45.4-3-90.8-4.4-136.1c-0.2-6.2,9.4-6.1,9.6,0C845,1687,846.5,1732.4,848,1777.8z"/>
			<path className="st2" d="M837.8,1700.9c-1,0-2-0.3-2.9-1l-64-48c-2.1-1.6-2.6-4.6-1-6.7c1.6-2.1,4.6-2.6,6.7-1l64,48
				c2.1,1.6,2.6,4.6,1,6.7C840.7,1700.3,839.2,1700.9,837.8,1700.9z"/>
			<path className="st2" d="M1218.7,1546.3c-0.5,0-1-0.1-1.5-0.2c-46.9-15.5-97.2-15-127.2-14.7l-2.3,0c0,0,0,0,0,0
				c-2.6,0-4.8-2.1-4.8-4.8c0-2.7,2.1-4.8,4.8-4.9l2.3,0c28.6-0.3,81.9-0.9,130.3,15.2c2.5,0.8,3.9,3.6,3,6.1
				C1222.6,1545,1220.7,1546.3,1218.7,1546.3z"/>
		</g>
		<g id="Head">
			<path className="st2" d="M1199.9,1198.6c-6.7-32.8-10.1-67.7-28.5-96.6c-14.3-22.3-37.7-41.2-65.4-40c-22.1,0.9-41.2,13.3-49.4,33.4
				c-3,0.6-5.5,3.7-3.4,7c22.2,33.3,38.6,69.7,47.5,108.7c8.1,35.4,6.8,72.1,15,107.4c11,47.4,51.8,93.5,102.8,85.3v-150
				C1208.7,1237,1203.8,1217.5,1199.9,1198.6z"/>
			<path className="st2" d="M1106.6,1211.3c0.6-92.8-69.9-150.9-154.9-169.8c-33.3-7.4-79.7-18.2-107.5,8.2c-20,19-16.7,51,9.4,61.8
				c1.7,0.7,3.1,0.4,4.1-0.5c69.8,55.8,151.4,93.5,239.4,110c3.7,0.7,6-2.5,6-5.3C1104.9,1215.2,1106.6,1213.8,1106.6,1211.3z"/>
			<path className="st1" d="M828.9,1366.8c16.6,34.7,53,45.1,91.2,46.2l26.4,115c0,0,17.6,67.2,80.6,58.8c58.3-7.8,60.4-60.4,60.4-60.4
				s-14.4-62.9-34.3-162.5c31.4-21.8,43.4-85.2,43.4-85.2c53.1-11.6,105.9-37.2,96.3-94.9c-6.3-37.5-52.8-59.2-117.7-14
				c0,0-3.1-66-82.4-87.7c-68.3-18.7-113.3-7.9-137.5,35.8c-8.9,15.9-14.9,36.2-18.3,61C826.9,1254.2,812.1,1331.7,828.9,1366.8z"/>
			<path className="st2" d="M1016.6,1592.4c-57.4,0-74.4-62.5-74.6-63.2l-25.6-111.6c-47-2.1-77-18.1-91.7-48.8v0
				c-15.1-31.4-6.2-93.1,3.3-158.3c1.5-10.7,3.1-21.4,4.6-32.1c3.6-25.8,9.7-46.3,18.9-62.7c24.9-45.1,71.7-57.6,142.9-38.1
				c65,17.8,81,65.2,84.8,84.1c44.4-28.6,74.2-23.3,88.4-17.3c16.4,6.9,27.5,21,30.4,38.7c8.1,48.8-25.4,83.2-97,99.7
				c-2.8,13-15.1,62-42.2,83.2c19.3,96.7,33.5,158.8,33.6,159.4c0.1,0.4,0.1,0.8,0.1,1.3c0,0.6-2.9,56.7-64.6,64.9
				C1023.9,1592.2,1020.2,1592.4,1016.6,1592.4z M833.3,1364.8c13.4,27.9,41.9,42.2,87,43.5c2.2,0.1,4.1,1.6,4.5,3.7l26.4,115
				c0.6,2.4,17.3,62.9,75.3,55.2c51.1-6.8,55.8-49.4,56.2-55.2c-1.6-7-15.5-68.8-34.1-162c-0.4-1.9,0.4-3.8,2-4.9
				c29.5-20.5,41.3-81.5,41.5-82.2c0.4-1.9,1.8-3.4,3.7-3.8c68.8-15.1,100-45.1,92.6-89.4c-2.4-14.4-11.4-25.9-24.7-31.5
				c-22.2-9.3-53.4-1.8-85.6,20.6c-1.4,1-3.3,1.1-4.9,0.4c-1.6-0.8-2.6-2.3-2.7-4.1c-0.1-2.5-4.1-62.9-78.9-83.3
				c-67.3-18.4-109.2-7.7-132,33.5c-8.4,15.1-14.4,35.1-17.7,59.4c-1.5,10.7-3,21.5-4.6,32.2C828.2,1275.7,819.5,1336,833.3,1364.8
				L833.3,1364.8z"/>
			<path className="st2" d="M910.6,1166.2c-29.9,38.2-62.9,90-26.3,135.1c3.9,4.8,10.7-2,6.8-6.8c-32.9-40.4,0.1-88.2,26.3-121.5
				C921.1,1168.2,914.4,1161.3,910.6,1166.2z"/>
			<path className="st2" d="M986.1,1291.4c-3.9,13.6-18.8,21.2-32.2,16.9c-5.9-1.9-8.4,7.4-2.6,9.3c18.4,6,38.7-5.1,44-23.6
				C997.1,1288,987.8,1285.4,986.1,1291.4z"/>
			<path className="st2" d="M1143.8,1186c-22.1,3.3-41,17.1-51,37.1c-2.8,5.5,5.5,10.4,8.3,4.8c9-18,25.4-29.7,45.3-32.7
				C1152.5,1194.4,1149.9,1185.1,1143.8,1186z"/>
			<path className="st2" d="M988.2,1171.5c-7.7,0-7.7,12,0,12C995.9,1183.6,996,1171.5,988.2,1171.5z"/>
			<path className="st2" d="M868.2,1158.3c-7.7,0-7.7,12,0,12C875.9,1170.3,875.9,1158.3,868.2,1158.3z"/>
			<path className="st2" d="M882.4,1124.7c-0.7-2.7-3.3-3.8-5.9-3.4c-2.4,0.4-4.8,0.8-7.2,1.2c-2.6,0.4-4,3.6-3.4,5.9
				c0.7,2.7,3.3,3.8,5.9,3.4c2.4-0.4,4.8-0.8,7.2-1.2C881.6,1130.1,883,1127,882.4,1124.7z"/>
			<path className="st2" d="M1003.6,1141.7c-2.4-2-4.8-4-7.2-6c-2-1.7-4.8-2-6.8,0c-1.7,1.7-2,5.1,0,6.8c2.4,2,4.8,4,7.2,6
				c2,1.7,4.8,2,6.8,0C1005.3,1146.8,1005.6,1143.4,1003.6,1141.7z"/>
			<path className="st2" d="M1046,1093.2c-21.5-19.4-48-30.4-76.8-32.6c-1.3-0.1-2.3,0.3-3,0.9c-0.8-0.1-1.5-0.2-2.3-0.3
				c-1.5-0.2-3,0.1-4.1,0.9c-2.6-2.7-5.2-5.5-7.9-8.2c-4.3-4.5-11.1,2.3-6.8,6.8c32.9,34.5,64.7,70.7,99.1,103.8
				c10.8,10.4,36.6,22.7,39.3-2.3C1086.1,1138,1062.5,1108.1,1046,1093.2z"/>
		</g>
	</g>
	<g id="Button">
		<circle className="st0" cx="959.4" cy="1669.7" r="62.4"/>
		<path className="st1" d="M967.2,1682h32.3v-10.1c0,0,1.3-24.6-38.3-24.6c-34.3,0-42.5,12.9-41.9,24.6v10.1h32.3v-15.3h15.5V1682z"/>
	</g>
</g>
<g id="Objects">
	<path className="st3" d="M311.8,776.6c-6.4,8.8-12.8,17.6-19.2,26.4c-3.6,5,4.7,9.8,8.3,4.8c6.4-8.8,12.8-17.6,19.2-26.4
		C323.8,776.4,315.4,771.6,311.8,776.6z"/>
	<path className="st3" d="M321.4,822.2c-4,5.6-8,11.2-12,16.8c-3.6,5,4.7,9.8,8.3,4.8c4-5.6,8-11.2,12-16.8
		C333.3,822,325,817.2,321.4,822.2z"/>
	<path className="st3" d="M875.4,747.8c-17.2,0-31.2-14-31.2-31.2c0-17.2,14-31.2,31.2-31.2c17.2,0,31.2,14,31.2,31.2
		C906.6,733.8,892.6,747.8,875.4,747.8z M875.4,695c-11.9,0-21.6,9.7-21.6,21.6s9.7,21.6,21.6,21.6c11.9,0,21.6-9.7,21.6-21.6
		S887.3,695,875.4,695z"/>
	<path className="st1" d="M1066,458.7c-4.8-5.6-9.6-11.2-14.4-16.8c-4-4.7-10.8,2.1-6.8,6.8c4.8,5.6,9.6,11.2,14.4,16.8
		C1063.3,470.2,1070,463.4,1066,458.7z"/>
	<path className="st1" d="M1033.2,466.9c-4.8-6.4-9.6-12.8-14.4-19.2c-3.7-4.9-12-0.1-8.3,4.8c4.8,6.4,9.6,12.8,14.4,19.2
		C1028.5,476.6,1036.9,471.8,1033.2,466.9z"/>
</g>
</svg>
