<?xml version="1.0" encoding="utf-8"?>
<!-- Generator: Adobe Illustrator 21.0.2, SVG Export Plug-In . SVG Version: 6.00 Build 0)  -->
<svg version="1.1" id="Слой_1" xmlns="http://www.w3.org/2000/svg" xmlns:xlink="http://www.w3.org/1999/xlink" x="0px" y="0px"
	 viewBox="0 0 2000 2000" style="enable-background:new 0 0 2000 2000;" xml:space="preserve">
<style type="text/css">
	.st0{fill:#F76567;}
	.st1{fill:#201000;}
	.st2{fill:#FFFFFF;}
	.st3{fill:#FFDF57;}
	.st4{fill:#FF98E1;}
	.st5{fill:#853EF3;}
	.st6{fill:#00DA9F;}
</style>
<g id="Piece_1">
	<rect id="BG_3_" x="455.9" y="463.3" className="st0" width="529.1" height="531.7"/>
	<g id="Woman_1_">
		<path className="st1" d="M725.8,562.3L570.3,814.5l-12.9,72.6c2.3-2,10.1,1.7,40.6,1.7c58.7,0,193.5-48.4,200.4-105.4
			C805.3,726.4,727.6,688.4,725.8,562.3z"/>
		<path className="st2" d="M746.5,463.3c-4.6,16.8-8.8,33.5-12.6,49.9c-36.2,153.5-41.8,281-79.4,311.8c-32.3,26.5-85.4,17.7-85.4,17.7
			L542.7,951l19.9,43.6H455.9V463.3H746.5z"/>
		<path className="st1" d="M531,996.8c-0.4,0-0.9-0.1-1.3-0.2c-2.8-0.7-4.4-3.5-3.7-6.3l38-149c0.7-2.6,3.2-4.3,5.9-3.8
			c0.5,0.1,51.1,8.1,81.2-16.6c23.1-18.9,34.3-81.9,48.4-161.7c7.8-44.1,16.7-94,29.2-147.2c2.3-9.7,4.9-18.1,7.7-26.9
			c2-6.2,4-12.6,5.9-19.6c0.8-2.8,3.6-4.4,6.4-3.6c2.8,0.8,4.4,3.6,3.6,6.4c-2,7.2-4,13.7-6,20c-2.7,8.7-5.3,16.9-7.5,26.2
			c-12.5,52.9-21.3,102.7-29.1,146.7c-15.1,85.1-26,146.6-52.1,168c-28.4,23.3-70.6,21-84.8,19.4L536,992.9
			C535.4,995.3,533.3,996.8,531,996.8z"/>
		<path className="st1" d="M746.5,463.3c-4.6,16.8-8.8,33.5-12.6,49.9c-16.3-30.2-47-45.3-81.4-49.9H746.5z"/>
		<path className="st2" d="M630.6,686.1c29.9-30.5,17.4-73.4,5.7-109.2"/>
		<path className="st1" d="M630.6,691.2c-1.3,0-2.6-0.5-3.6-1.5c-2.1-2-2.1-5.3-0.1-7.3c26.7-27.2,17.3-64.7,4.5-104
			c-0.9-2.7,0.6-5.6,3.3-6.5c2.8-0.9,5.7,0.6,6.5,3.3c10.5,32.1,26.4,80.5-6.9,114.5C633.3,690.7,631.9,691.2,630.6,691.2z"/>
		<path className="st1" d="M701.5,575.2c-1,0-2-0.3-2.9-0.9l-11.8-7.9c-2.4-1.6-3-4.8-1.4-7.2c1.6-2.4,4.8-3,7.2-1.4l11.8,7.9
			c2.4,1.6,3,4.8,1.4,7.2C704.9,574.3,703.2,575.2,701.5,575.2z"/>
		<path className="st1" d="M564.9,577.3c-8.1-1.1-9.8,11.4-1.7,12.5C571.2,590.9,573,578.4,564.9,577.3z"/>
		<path className="st1" d="M689.5,593c-8.1-1.1-9.8,11.4-1.7,12.5C695.9,606.6,697.6,594.1,689.5,593z"/>
		<path className="st1" d="M541.7,747.4c-5.7,0-11.3-2.6-15.8-7.4c-7.7-8.2-10.5-20.9-7.2-33.1c0.7-2.8,3.6-4.4,6.3-3.7
			c2.8,0.7,4.4,3.6,3.7,6.3c-2.8,10.5,0.6,18.9,4.8,23.3c3,3.2,6.6,4.6,9.9,3.9c2.8-0.6,5.5,1.3,6.1,4.1c0.6,2.8-1.3,5.5-4.1,6.1
			C544.2,747.3,543,747.4,541.7,747.4z"/>
		<line className="st2" x1="547.9" y1="539.4" x2="568.6" y2="535.5"/>
		<path className="st1" d="M547.9,544.6c-2.4,0-4.6-1.7-5.1-4.2c-0.5-2.8,1.3-5.5,4.1-6l20.7-3.9c2.8-0.5,5.5,1.3,6,4.1
			c0.5,2.8-1.3,5.5-4.1,6l-20.7,3.9C548.5,544.5,548.2,544.6,547.9,544.6z"/>
		<line className="st2" x1="458" y1="935.5" x2="499.5" y2="990.8"/>
		<path className="st1" d="M499.5,996c-1.6,0-3.1-0.7-4.2-2.1l-41.5-55.3c-1.7-2.3-1.3-5.5,1-7.3c2.3-1.7,5.5-1.3,7.3,1l41.5,55.3
			c1.7,2.3,1.3,5.5-1,7.3C501.7,995.6,500.6,996,499.5,996z"/>
		<line className="st2" x1="542.7" y1="951" x2="563.4" y2="994.2"/>
		<path className="st1" d="M563.4,999.4c-1.9,0-3.8-1.1-4.7-2.9L538,953.3c-1.2-2.6-0.2-5.7,2.4-6.9c2.6-1.3,5.7-0.2,6.9,2.4l20.7,43.2
			c1.2,2.6,0.2,5.7-2.4,6.9C564.9,999.2,564.2,999.4,563.4,999.4z"/>
		<path className="st1" d="M456.3,548.5c0,0,119.2-63.9,133-84.7l-133.5-0.4L456.3,548.5z"/>
	</g>
</g>
<g id="Piece_2">
	<path id="BG_2_" className="st3" d="M985,463.3v168.1c-58.3,0.5-105.4,47.9-105.4,106.2c0,58.4,47.1,105.8,105.4,106.2v152.9h532.2
		V463.3H985z"/>
	<g id="Man_1_">
		<path className="st1" d="M1201.5,568c-7.3,22.2,20.7,31.2,36.3,33.9c0.9,0.1,1.6,0.1,2.3-0.2c0.2,0.1,0.5,0.1,0.7,0.2
			c15.6-31.9,47.9-41.8,98.2-32.2c58.4,11.1,61.5,47.5,61.5,47.5c3.5-5,10.9-10.7,20.1-15.1c0.6-0.9,1.2-1.9,1.8-2.9
			c0-0.1,0.1-0.2,0.1-0.2c3-0.5,5.6-3.4,3.6-6.7c-18.4-31.2-48.1-72.1-83.4-85.8c-11-4.2-22.2-2.5-27.7,8.9
			c-2.8,5.7-2.7,11.4-1.2,17c-16.4-11.8-34-21.7-52.8-29.4c-17.7-7.2-43.6-18.8-62.7-10.5c-14,6.1-18.9,21.5-15.6,35.8
			c3.1,13.9,13.4,23.5,25,31.1C1205,561.4,1202.8,564.2,1201.5,568z"/>
		<path className="st2" d="M1232.2,778.1c13.5,23.5,40.4,28.9,68.1,27.8l11.2,67.4c0,0,13.7,34.9,58.7,25.9
			c17.3-3.5,35.4-24.4,35.4-24.4s-5-26.2-10.8-110.2c21.9-16.9,27.9-62.1,27.9-62.1c45.8-7.5,86.6-38.3,67.2-82.8
			c-13.8-31.5-46.9-28.3-69.3-17.5c-9.2,4.4-16.6,10.1-20.1,15.1c0,0-3-36.3-61.5-47.5c-50.3-9.6-82.5,0.3-98.2,32.2
			c-5.7,11.6-9.2,26.2-10.7,43.8C1225.9,699.1,1218.5,754.3,1232.2,778.1z"/>
		<path className="st1" d="M1356.1,905.9c-36.9,0-49.3-30.3-49.4-30.7c-0.1-0.3-0.2-0.7-0.3-1l-10.5-62.9c-33.9,0.6-56.1-9.5-68.3-30.5
			l0,0c-12.6-21.8-8.7-65.9-4.6-112.5c0.7-7.6,1.3-15.2,1.9-22.8c1.5-18.6,5.2-33.5,11.2-45.7c16.5-33.7,50.5-45.2,103.8-35
			c43.2,8.2,58,29.7,63.1,42.4c4.1-3.5,9.4-6.8,15.3-9.6c8.5-4.1,30.4-12.7,50.9-5.1c11.4,4.3,20,12.7,25.4,25.2
			c7.4,17,7.1,33.6-0.8,48.2c-10.9,20-35.6,35.2-66.6,41.1c-1.9,11.2-9,43.9-27.1,59.9c5.7,80.4,10.5,106.6,10.6,106.9
			c0.3,1.5-0.1,3.2-1.2,4.3c-0.8,0.9-19.5,22.4-38.3,26.1C1365.8,905.4,1360.8,905.9,1356.1,905.9z M1316.6,871.8
			c1.7,3.9,14.9,29.8,52.7,22.3c12.6-2.5,26.2-16.1,30.8-21c-1.4-8.4-5.6-38.2-10.5-108.2c-0.1-1.7,0.6-3.4,2-4.5
			c20-15.5,25.9-58.2,25.9-58.7c0.3-2.3,2-4.1,4.3-4.4c29.2-4.8,53.3-18.8,62.9-36.5c6.4-11.8,6.6-25,0.4-39.1
			c-4.3-9.8-10.9-16.4-19.6-19.6c-11.6-4.3-27.6-2.6-42.8,4.7c-8.1,3.9-15,9-18.1,13.4c-1.3,1.8-3.5,2.6-5.6,2
			c-2.1-0.6-3.6-2.4-3.8-4.6c-0.1-1.3-3.9-32.6-57.3-42.8c-48.8-9.3-78.2,0.1-92.5,29.4c-5.4,10.9-8.8,25-10.2,42
			c-0.6,7.6-1.3,15.3-1.9,22.9c-3.8,43-7.7,87.4,3.3,106.4c10.5,18.3,31.2,26.6,63.4,25.2c2.5-0.2,4.9,1.7,5.3,4.3L1316.6,871.8z"/>
		<path className="st1" d="M1280.8,716.1c-1.6,0-3.1-0.7-4.1-2c-18.6-24.1-9-51.8,13.8-91.6c1.4-2.5,4.6-3.3,7.1-1.9
			c2.5,1.4,3.3,4.6,1.9,7.1c-24.3,42.5-28,62.7-14.6,80.1c1.7,2.3,1.3,5.5-0.9,7.3C1283,715.7,1281.9,716.1,1280.8,716.1z"/>
		
			<ellipse transform="matrix(0.9771 -0.2128 0.2128 0.9771 -104.709 301.8626)" className="st1" cx="1350" cy="637.4" rx="5.9" ry="5.9"/>
		
			<ellipse transform="matrix(0.9771 -0.2128 0.2128 0.9771 -106.5589 283.4248)" className="st1" cx="1263.4" cy="636.7" rx="5.9" ry="5.9"/>
		<path className="st1" d="M1417.6,667.4c-0.4,0-0.9-0.1-1.3-0.2c-2.8-0.7-4.5-3.5-3.7-6.3c3.1-12.3,22.3-36.2,42.9-36.5
			c0,0,0.1,0,0.1,0c2.8,0,5.1,2.3,5.2,5.1c0,2.9-2.2,5.2-5.1,5.3c-15.5,0.3-30.9,20.6-33,28.7C1422,665.9,1419.9,667.4,1417.6,667.4
			z"/>
		<line className="st2" x1="1347.8" y1="600.3" x2="1361.7" y2="605.5"/>
		<path className="st1" d="M1361.7,610.7c-0.6,0-1.2-0.1-1.8-0.3l-13.8-5.2c-2.7-1-4-4-3-6.7c1-2.7,4-4,6.7-3l13.8,5.2c2.7,1,4,4,3,6.7
			C1365.7,609.4,1363.8,610.7,1361.7,610.7z"/>
		<line className="st2" x1="1264.9" y1="603.7" x2="1251.1" y2="608.9"/>
		<path className="st1" d="M1251.1,614.1c-2.1,0-4.1-1.3-4.9-3.4c-1-2.7,0.4-5.7,3-6.7l13.8-5.2c2.7-1,5.7,0.3,6.7,3
			c1,2.7-0.4,5.7-3,6.7l-13.8,5.2C1252.3,614,1251.7,614.1,1251.1,614.1z"/>
		<path className="st1" d="M1349.6,726.4c-0.6-6.6-11-6.7-10.4,0c0.5,5.7-4.7,11.7-10.7,10.4c-6.5-1.4-9.3,8.6-2.8,10
			C1337.9,749.4,1350.8,739.2,1349.6,726.4z"/>
		<path className="st1" d="M1085.2,997.7c-0.2,0-0.5,0-0.7,0c-2.8-0.4-4.8-3-4.4-5.8c20.3-149,145-134.1,219.6-125.1
			c4.3,0.5,8.5,1,12.5,1.5c2.8,0.3,4.9,2.9,4.6,5.7c-0.3,2.8-2.8,4.9-5.7,4.6c-4-0.5-8.2-1-12.5-1.5c-75.3-9-189.1-22.7-208.1,116.2
			C1090,995.8,1087.8,997.7,1085.2,997.7z"/>
		<path className="st1" d="M1512,891.9c-0.3,0-0.5,0-0.8-0.1c-0.4-0.1-42.1-6.5-106-11.9c-2.9-0.2-5-2.7-4.7-5.6c0.2-2.9,2.8-5,5.6-4.7
			c64.3,5.4,106.3,11.9,106.7,11.9c2.8,0.4,4.8,3.1,4.3,5.9C1516.7,890,1514.5,891.9,1512,891.9z"/>
	</g>
</g>
<g id="Piece_3">
	<path id="BG_1_" className="st4" d="M830.4,994.6v-0.4c0-58.7-47.6-106.3-106.3-106.3s-106.3,47.6-106.3,106.3v0.4h-162v529.2H985
		V994.6H830.4z"/>
	<g id="Man">
		<path className="st2" d="M924.7,1523.8H455.9V1476c31.8-16.3,104.2-30.5,186.6-34.7c0,0,230.7,3.9,260.5,41.5
			C913.9,1496.5,920.6,1511,924.7,1523.8z"/>
		<path className="st1" d="M924.8,1529c-2.1,0-4.1-1.3-4.9-3.4c-20.4-56.1-64.2-83.2-247.4-75.2c-11,0.5-22,0.9-32.9,1.3
			c-68.5,2.4-133.1,4.7-179.6,27.9c-2.6,1.3-5.7,0.2-7-2.3c-1.3-2.6-0.2-5.7,2.3-7c48.5-24.2,114.2-26.5,183.8-29
			c10.9-0.4,21.8-0.8,32.8-1.3c169.8-7.4,232.4,12.6,257.6,82c1,2.7-0.4,5.7-3.1,6.6C925.9,1528.9,925.3,1529,924.8,1529z"/>
		<path className="st2" d="M764.6,1275.4c-10.9-46.5-55.1-114.6-78.4-184.9c-36.6-76.7-139.2-26.2-172.5,28
			c-20.3,33-24.6,76.6-12.1,115.7C531,1326,591.2,1339,591.2,1339l11.1,124.3l103.7-2.6l3.4-112.3c0,0,35.3,0.1,53.3-29.2
			C768.6,1309.4,768.3,1291,764.6,1275.4z"/>
		<path className="st1" d="M602.3,1468.5c-2.7,0-4.9-2-5.2-4.7L586.4,1343c-14.1-4.5-63.6-25.8-89.7-107.3c-13.1-40.9-8.4-85.8,12.6-120
			c21.7-35.3,74.2-71.8,121.1-69.5c27.2,1.4,48.1,16,60.5,42c0.1,0.2,0.2,0.4,0.2,0.6c11.3,34.1,28,68.5,42.7,98.9
			c15.5,32,30.1,62.2,35.8,86.5c3.5,15.2,4.7,35.6-2.7,47.7c-15.3,24.9-41.6,30.2-52.7,31.4l-3.2,107.6c-0.1,2.9-2.5,5-5.3,5
			c-2.9-0.1-5.1-2.5-5-5.3l3.4-112.3c0.1-2.8,2.4-5,5.2-5h0c0.3,0,32.7-0.3,48.8-26.7c4.6-7.6,5.2-23.7,1.4-39.9
			c-5.4-23.2-19.8-52.9-35.1-84.3c-14.8-30.5-31.6-65.1-43.1-99.8c-10.9-22.5-28.2-34.6-51.6-35.8c-41.9-2.3-91.5,31.6-111.7,64.5
			c-19.5,31.7-23.8,73.3-11.6,111.4c28.2,87.9,85.2,101.2,85.7,101.3c2.2,0.5,3.9,2.3,4.1,4.6l11.1,124.3c0.3,2.8-1.9,5.4-4.7,5.6
			C602.6,1468.5,602.4,1468.5,602.3,1468.5z"/>
		<path className="st1" d="M590.7,1344.4c7-3.5,8.6-9.9,13.2-17c18.1-28.1,0.3-72.7-0.3-103.1c-0.1-6.3,0.2-12.7,1-19.2
			c-1-3.5-0.1-3.3-1-6.9c4.1,1.6,8.3,1.1,12.7-2.5c10.6-8.9,1.9-31.5,0.1-42.4c-3.5-20.8-7-41.6-10.5-62.5c9.5-16.1,24-28,40.8-36.5
			c-45.7-14-108.3,24-132.9,64.1c-20.3,33-24.6,76.6-12.1,115.7C526.1,1310.7,576.1,1339.3,590.7,1344.4z"/>
		<path className="st2" d="M706.4,1140.4l48,86.4C772,1195.5,745.7,1182,706.4,1140.4z"/>
		<path className="st1" d="M754.4,1232.1c-0.9,0-1.7-0.2-2.5-0.7c-2.5-1.4-3.4-4.6-2-7.1c11.5-20.5,2.5-30.9-25.2-58.1
			c-6.6-6.5-14.1-13.8-22.1-22.3c-2-2.1-1.9-5.4,0.2-7.3c2.1-2,5.4-1.9,7.3,0.2c7.9,8.3,15.3,15.6,21.8,22
			c26.8,26.2,43,42.1,27,70.6C758,1231.1,756.2,1232.1,754.4,1232.1z"/>
		<path className="st2" d="M607.6,1194.5c-53-16.9-81.5,14-80.1,40c2.4,43,42.5,59.8,100.9,37.2"/>
		<path className="st1" d="M581,1286.9c-13.9,0-26.1-3.1-35.7-9.4c-13.9-9-21.8-23.8-22.9-42.8c-0.8-14.4,6.1-28.7,18.5-38.3
			c9.8-7.6,31.7-18.6,68.3-6.9c2.7,0.9,4.2,3.8,3.4,6.5c-0.9,2.7-3.8,4.3-6.5,3.4c-23.8-7.6-44.6-5.7-58.8,5.3
			c-9.6,7.4-15.1,18.7-14.5,29.5c0.9,15.5,7.2,27.5,18.2,34.6c17,11,43.9,10.3,75.7-2c2.7-1,5.7,0.3,6.7,3c1,2.7-0.3,5.7-3,6.7
			C612.4,1283.5,595.7,1286.9,581,1286.9z"/>
		<path className="st1" d="M558.6,1227.8c15.4-7.1,34-4,46.2,7.8c4.4,4.3-1.6,11.9-6,7.5c-10-9.7-24.1-12.2-36.7-6.4
			C556.4,1239.4,552.9,1230.4,558.6,1227.8z"/>
		
			<ellipse transform="matrix(0.9327 -0.3605 0.3605 0.9327 -369.2077 328.5744)" className="st1" cx="696.1" cy="1153.9" rx="6" ry="6"/>
		<path className="st1" d="M672.8,1123.4c2.2-2.1,4.4-4.3,6.6-6.4c1.9-1.8,4.6-2.5,6.8-0.8c1.8,1.5,2.6,4.9,0.8,6.8l-6.6,6.4
			c-1.9,1.8-4.6,2.5-6.8,0.8C671.7,1128.7,670.9,1125.2,672.8,1123.4z"/>
		<path className="st1" d="M705.7,1259.4c4.4,6.1,12.2,9,19.5,6.7c5.9-1.9,9.4,7.1,3.5,9c-11.3,3.6-23.7-0.2-30.7-9.9
			C694.4,1260.1,702.1,1254.3,705.7,1259.4z"/>
		<path className="st1" d="M650.5,1418.1c-17.7,0-36.7-4-53.7-15.3c-2.4-1.6-3-4.8-1.4-7.2c1.6-2.4,4.8-3,7.2-1.4
			c36.2,24.1,83.4,9.8,98.5,2.3c2.6-1.3,5.7-0.2,7,2.3c1.3,2.6,0.2,5.7-2.3,7C694.1,1411.6,673.4,1418.1,650.5,1418.1z"/>
	</g>
</g>
<g id="Piece_4">
	<path id="BG" className="st5" d="M1353.9,994.6v-0.4c0-58.7-47.6-106.3-106.3-106.3c-58.7,0-106.3,47.6-106.3,106.3v0.4H985v155.1
		c-58.3,0.5-105.4,47.9-105.4,106.2c0,58.4,47.1,105.8,105.4,106.2v161.6h532.2V994.6H1353.9z"/>
	<g id="Woman">
		<path className="st1" d="M1467.1,1119.8c-20.8-2-40.3,7.1-50.5,24.8c-2.9,0.1-5.6,2.7-4,6.1c16.5,34,27.2,70.2,30.5,107.9
			c3,34.2-2.9,68.4,0.2,102.5c3.9,42.1,31.4,86.4,73.7,92.4v-299.1C1505.8,1136.4,1488.7,1121.9,1467.1,1119.8z"/>
		<path className="st1" d="M1448.3,1259.5c12.5-86.8-46-150.2-123.1-178.9c-30.2-11.2-72.3-27.3-101.7-6.1c-21.2,15.2-22.2,45.6,0.8,59
			c1.5,0.9,2.9,0.7,3.9,0c58.1,61.2,129.6,107.1,209.9,133.8c3.4,1.1,6-1.5,6.3-4.2C1446.3,1263.1,1448,1261.9,1448.3,1259.5z"/>
		<path className="st2" d="M1517.2,1210.5v82c-19.8,18.8-54.9,26.5-86.8,29c0,0-19.4,57.8-51.6,74.2c3.4,56.9,6.7,101.4,8.8,128.1
			c0.1,0.7,0.1,1.5,0.2,2.1h-130.8l-0.2-2.1l-8.9-99.5c-35.6-5.9-68.3-20.4-79.4-55c-11.2-35,12.6-105.6,31.9-174.6
			c6.4-22.8,14.6-41.1,25-54.8c28.2-37.8,71.8-42.1,133.3-15.8c71.4,30.5,65.8,92.7,65.8,92.7
			C1465.1,1196.1,1498.7,1197.7,1517.2,1210.5z"/>
		<path className="st1" d="M1387.7,1531.1c-2.7,0-4.9-2.1-5.2-4.8c-1.8-22.2-5.2-68.6-9-130.4c-0.1-2.1,1-4,2.8-4.9
			c30-15.2,48.9-70.6,49.1-71.2c0.7-2,2.4-3.4,4.5-3.5c27.2-2.1,61-7.2,80.3-28c2-2.1,5.2-2.2,7.3-0.3c2.1,2,2.2,5.2,0.3,7.3
			c-21,22.5-55.3,28.6-83.7,31c-4.6,12.3-22.2,55.7-50,72.2c3.7,60.1,7.1,105.2,8.8,126.9c0.2,2.9-1.9,5.4-4.8,5.6
			C1388,1531.1,1387.9,1531.1,1387.7,1531.1z"/>
		<path className="st1" d="M1256.9,1531.1c-2.7,0-4.9-2-5.2-4.7l-8.7-97.6c-43.7-8.1-69.7-27.1-79.5-57.8
			c-10.1-31.5,6.2-88.2,23.5-148.2c2.8-9.8,5.6-19.6,8.4-29.4c6.7-23.9,15.2-42.3,25.8-56.5c29.4-39.3,75-45,139.4-17.5
			c57.9,24.7,67.4,70.2,68.8,89.2c46.3-21.4,73.1-12.5,87.5-0.7c2.2,1.8,2.6,5.1,0.8,7.3c-1.8,2.2-5.1,2.6-7.3,0.8
			c-18.4-14.9-47.3-13-83.7,5.5c-1.7,0.9-3.7,0.7-5.3-0.3c-1.6-1.1-2.4-2.9-2.3-4.8c0.2-2.4,4.2-58.9-62.7-87.4
			c-60.2-25.8-100.6-21.3-127.1,14.2c-9.7,12.9-17.9,30.8-24.2,53.1c-2.7,9.8-5.6,19.7-8.4,29.5c-16.8,58.4-32.7,113.6-23.6,142.1
			c8.8,27.6,33.5,44.5,75.3,51.5c2.3,0.4,4.1,2.3,4.3,4.7l9.1,101.6c0.3,2.8-1.9,5.4-4.7,5.6
			C1257.2,1531.1,1257.1,1531.1,1256.9,1531.1z"/>
		<path className="st1" d="M1270.7,1192.1c-32.9,31.9-70.5,76.1-42,123c3,5,10.2-0.5,7.2-5.5c-25.6-42,11.5-82.5,40.2-110.3
			C1280.3,1195.3,1274.9,1188,1270.7,1192.1z"/>
		<path className="st1" d="M1325.3,1319c-5.4,12.2-20.3,17.4-32.3,11.7c-5.3-2.5-8.8,5.8-3.6,8.3c16.4,7.9,36.9,0.2,44.2-16.4
			C1336,1317.2,1327.6,1313.6,1325.3,1319z"/>
		<path className="st1" d="M1486.4,1240.7c-21.1,0.2-40.6,10.8-52.5,28.1c-3.3,4.8,3.8,10.4,7.1,5.6c10.8-15.7,27.6-24.5,46.6-24.7
			C1493.4,1249.7,1492.2,1240.7,1486.4,1240.7z"/>
		<path className="st1" d="M1342.7,1207.1c-7.2-1-8.8,10.2-1.5,11.2C1348.3,1219.4,1349.9,1208.1,1342.7,1207.1z"/>
		<path className="st1" d="M1232,1179.3c-7.2-1-8.8,10.2-1.5,11.2C1237.7,1191.5,1239.3,1180.3,1232,1179.3z"/>
		<path className="st1" d="M1249.7,1149.6c-0.3-2.6-2.6-4-5.1-3.9c-2.3,0.1-4.6,0.1-6.9,0.2c-2.5,0.1-4.2,2.8-3.9,5.1
			c0.3,2.6,2.6,4,5.1,3.9c2.3-0.1,4.6-0.1,6.9-0.2C1248.2,1154.6,1250,1151.9,1249.7,1149.6z"/>
		<path className="st1" d="M1360.9,1181.2c-2-2.2-4-4.4-6-6.5c-1.6-1.8-4.3-2.4-6.4-0.9c-1.8,1.4-2.5,4.5-0.9,6.4c2,2.2,4,4.4,6,6.5
			c1.6,1.8,4.3,2.4,6.4,0.9C1361.9,1186.2,1362.6,1183,1360.9,1181.2z"/>
		<path className="st1" d="M1406.8,1141.2c-17.6-21-41-34.6-67.7-40.4c-1.2-0.3-2.2,0-3,0.5c-0.7-0.2-1.4-0.4-2.1-0.6
			c-1.4-0.4-2.8-0.3-4,0.3c-2.1-2.9-4.2-5.8-6.3-8.7c-3.4-4.7-10.6,0.7-7.2,5.5c26.4,36.5,51.5,74.5,79.3,109.9
			c8.8,11.1,31.3,26,37.1,2.9C1438.6,1188.3,1420.4,1157.3,1406.8,1141.2z"/>
		<path className="st1" d="M1088.2,1528.1c-0.2,0-0.5,0-0.7-0.1c-2.8-0.4-4.8-3-4.4-5.9c1.9-13,9.5-23.9,22-31.5
			c29.6-17.9,82.7-14.7,149.6,9c2.7,1,4.1,3.9,3.2,6.6c-1,2.7-3.9,4.1-6.6,3.2c-86.2-30.5-125.2-19.3-140.7-9.9
			c-9.8,5.9-15.7,14.2-17.1,24.1C1093,1526.3,1090.8,1528.1,1088.2,1528.1z"/>
	</g>
</g>
<g id="Objects">
	<path className="st6" d="M521.9,393c-1.3,0-2.7-0.5-3.7-1.5l-46.7-46.7c-2-2-2-5.3,0-7.3c2-2,5.3-2,7.3,0l46.7,46.7c2,2,2,5.3,0,7.3
		C524.6,392.4,523.3,393,521.9,393z"/>
	<path className="st6" d="M475.3,393c-1.3,0-2.7-0.5-3.7-1.5c-2-2-2-5.3,0-7.3l46.7-46.7c2-2,5.3-2,7.3,0c2,2,2,5.3,0,7.3L479,391.4
		C478,392.4,476.6,393,475.3,393z"/>
	<path className="st6" d="M615.2,395.5h-54.4c-2.9,0-5.2-2.3-5.2-5.2v-54.4c0-2.9,2.3-5.2,5.2-5.2h54.4c2.9,0,5.2,2.3,5.2,5.2v54.4
		C620.4,393.2,618.1,395.5,615.2,395.5z M566,385.2h44.1v-44.1H566V385.2z"/>
	<path className="st6" d="M687.8,361.9h-38.9c-2.9,0-5.2-2.3-5.2-5.2c0-2.9,2.3-5.2,5.2-5.2h38.9c2.9,0,5.2,2.3,5.2,5.2
		C693,359.5,690.7,361.9,687.8,361.9z"/>
	<path className="st3" d="M1102.7,1092.4c-5.1-6.1-10.2-12.2-15.3-18.3c-4.3-5.1-11.6,2.2-7.3,7.3c5.1,6.1,10.2,12.2,15.3,18.3
		C1099.6,1104.8,1106.9,1097.4,1102.7,1092.4z"/>
	<path className="st3" d="M1091.1,1135.6c-6.4-7.5-12.9-15.1-19.3-22.6c-4.3-5-12.8,0.9-8.4,6c6.4,7.5,12.9,15.1,19.3,22.6
		C1087,1146.7,1095.4,1140.7,1091.1,1135.6z"/>
	<path className="st2" d="M1079.2,556.2c-17.1,0-31.1-14-31.1-31.1c0-17.1,14-31.1,31.1-31.1c17.1,0,31.1,14,31.1,31.1
		C1110.3,542.3,1096.3,556.2,1079.2,556.2z M1079.2,504.4c-11.4,0-20.7,9.3-20.7,20.7c0,11.4,9.3,20.7,20.7,20.7
		c11.4,0,20.7-9.3,20.7-20.7C1099.9,513.7,1090.6,504.4,1079.2,504.4z"/>
	<path className="st2" d="M915.9,908.7c-1.1,0-2.1-0.3-3-1c-2.3-1.7-2.8-4.9-1.1-7.2l20.7-28.5c1.7-2.3,4.9-2.8,7.2-1.1
		c2.3,1.7,2.8,4.9,1.1,7.2l-20.7,28.5C919.1,908,917.5,908.7,915.9,908.7z"/>
</g>
</svg>
