<?xml version="1.0" encoding="utf-8"?>
<!-- Generator: Adobe Illustrator 21.0.2, SVG Export Plug-In . SVG Version: 6.00 Build 0)  -->
<svg version="1.1" id="Слой_1" xmlns="http://www.w3.org/2000/svg" xmlns:xlink="http://www.w3.org/1999/xlink" x="0px" y="0px"
	 viewBox="0 0 2000 2000" style="enable-background:new 0 0 2000 2000;" xml:space="preserve">
<style type="text/css">
	.st0{fill:#FFDF57;}
	.st1{fill:#FFFFFF;}
	.st2{fill:#853EF3;}
	.st3{fill:#201000;}
	.st4{fill:#00DA9F;}
	.st5{fill:#FF98E1;}
	.st6{fill:#F76567;}
</style>
<g id="Message">
	<path className="st0" d="M384,994h1265c12.1,0,23.2,4.7,31.4,12.4c9,8.4,14.6,20.4,14.6,33.6v458H384c-10.2,0-19.6-3.3-27.2-8.9
		c-11.4-8.4-18.8-21.9-18.8-37.1v-412c0-12.7,5.1-24.2,13.5-32.5C359.8,999.1,371.3,994,384,994z"/>
	<polygon className="st0" points="1695.8,1498.4 1695.8,1578.5 1596.6,1479.2 	"/>
	<path className="st1" d="M490.6,1397.6h-72c-6.2,0-6.2,9.6,0,9.6h72C496.8,1407.2,496.8,1397.6,490.6,1397.6z"/>
	<path className="st1" d="M490.6,1450.4h-72c-6.2,0-6.2,9.6,0,9.6h72C496.8,1460,496.8,1450.4,490.6,1450.4z"/>
</g>
<rect id="BG" x="787.6" y="588.4" className="st2" width="574.4" height="566.6"/>
<g id="Man">
	<g id="Body_1_">
		<path className="st1" d="M1326.9,1174.2c-4.8-79.2-24-124.8-99.6-132.1c-54.3-5.2-192.2,0.9-288,16c-38.2,6-64.9,10.4-88.9,18.8
			c-56.4,19.8-92,99.5-146,184.1l-2.5-0.5l-10.4,20.2c-3,4.5-6,8.9-9.2,13.4l1.9,0.8l-7.9,15.2c0,0-12.8-83.2-30.4-169.7
			c-12.4-60.7-17.6-108-17.4-146.4H466.3c17.6,91.4,64.9,336.6,73.9,383.2c6.2,32,17.7,87.4,42.4,120.9c13.5,18.4,31,30.2,53.6,27.9
			c25.2-2.5,47.7-12.3,69.2-27.9c33.1-24.1,63.9-62.2,98.8-109.7c7.9-10.7,14.8-20.3,20.9-29l1.3,138.7h500.1
			C1328.1,1409.9,1330.4,1232.8,1326.9,1174.2z"/>
		<path className="st3" d="M1325.7,1533.8C1325.6,1533.8,1325.6,1533.8,1325.7,1533.8c-2.8-0.1-4.9-2.2-4.8-4.9
			c0.1-3,5.9-276.2,1.2-354.3c-4.6-75.5-21.6-120.5-95.3-127.6c-53.3-5.1-190.2,0.8-286.8,15.9c-39.3,6.2-64.8,10.5-88,18.6
			c-42.7,14.9-74.2,67.7-110.8,128.7c-16.9,28.2-34.3,57.3-54.9,86.8c-1.5,2.2-4.5,2.7-6.7,1.2c-2.2-1.5-2.7-4.5-1.2-6.7
			c20.4-29.2,37.8-58.2,54.6-86.2c37.5-62.6,69.9-116.8,115.8-132.8c24-8.4,49.9-12.8,89.7-19.1c97.3-15.3,235.4-21.1,289.2-16
			c80.2,7.6,99.2,57.9,104,136.5c4.8,78.5-1.1,352.2-1.2,355.1C1330.4,1531.7,1328.3,1533.8,1325.7,1533.8z"/>
		<path className="st3" d="M1234.4,1533.2c-2.6,0-4.7-2-4.8-4.6c-0.1-2.7-9.7-266.1-15.6-346.7c-0.2-2.6,1.8-4.9,4.4-5.1
			c2.6-0.2,4.9,1.8,5.1,4.4c5.9,80.8,15.5,344.4,15.6,347.1c0.1,2.6-2,4.9-4.6,5C1234.6,1533.2,1234.5,1533.2,1234.4,1533.2z"/>
		<path className="st3" d="M1328.4,1328c-1.1,0.2-2.2,0.8-2.9,1.8c-6.6,8.5-58.8,29.3-92.6,13c-2.4-1.2-5.3-0.2-6.4,2.2
			c-1.2,2.4-0.2,5.3,2.2,6.4c10.2,4.9,22,6.9,34,6.9c30.7,0,62.4-12.9,70.1-22.4C1331.4,1333.2,1330,1330.6,1328.4,1328z"/>
		<path className="st3" d="M827.5,1510.4C827.5,1510.4,827.4,1510.4,827.5,1510.4c-2.7,0-4.8-2.2-4.8-4.9c0-1.4,2.3-139-2.4-232.6
			c-0.1-2.6,1.9-4.9,4.6-5c2.7-0.1,4.9,1.9,5,4.6c4.8,93.9,2.4,231.8,2.4,233.2C832.2,1508.3,830.1,1510.4,827.5,1510.4z"/>
	</g>
	<g id="Hand">
		<path className="st3" d="M695.4,1375.9c-2.2,0-4.2-1.6-4.7-3.8c-0.5-2.4-48.2-235.9-62.4-297.6c-8.2-35.4-5.8-71.5-3.7-103.3
			c1.6-24.4,3-45.5-1-59.7c-7.6-26.6-23.8-44-31.9-46.5c-6.7-2-8.7,5-9.1,7.9c-0.3,2.4,2.5,7.5,6.7,15.9c5.8,11.6,4.3,26.1-3.6,36
			c-6.5,8.2-16.2,11.6-25.8,9.2c-11.7-2.9-21.4-10.4-26.6-20.6c-3.6-7.1-6.7-18.8-0.7-33.9c6.6-16.6,18.4-18.5,27.1-19.9
			c6-1,9.6-1.7,11.8-5c1.7-2.6,1.2-4,0-5.4c-4.5-5.1-20-8.2-32.3-2.1c-16.8,8.4-21.4,34.6-21.4,34.9c-0.4,2.6-2.9,4.4-5.5,3.9
			c-2.6-0.4-4.4-2.9-3.9-5.5c0.2-1.3,5.4-31.3,26.6-41.9c14.5-7.3,35.4-5.2,43.8,4.3c4.3,4.9,4.6,11.3,0.8,17.1
			c-4.7,7-11.9,8.1-18.3,9.2c-8.1,1.3-15.1,2.4-19.7,14c-3.7,9.3-3.6,18.3,0.3,25.9c3.9,7.7,11.4,13.4,20.4,15.7
			c6,1.5,11.8-0.6,16-5.9c4.7-5.9,7.3-16.1,2.5-25.7c-10-20.1-12.4-23.4-0.7-35.1c3.2-3.2,9.3-3.6,14.1-2.3
			c14.3,3.7,31.3,27,38.7,53.1c4.5,15.7,3.1,37.6,1.4,62.9c-2.1,31.2-4.4,66.5,3.5,100.6c14.3,61.8,62,295.5,62.4,297.8
			c0.5,2.6-1.1,5.1-3.7,5.7C696.1,1375.9,695.8,1375.9,695.4,1375.9z"/>
		<path className="st3" d="M522.6,919.7c-2,0-3.9-1.3-4.6-3.3c-8.1-24.3-23.2-69.6-35.2-71.7c-2.6-0.4-5.7,1.5-9.3,6
			c-1.7,2.1-4.7,2.4-6.7,0.8c-2.1-1.7-2.4-4.7-0.8-6.7c5.9-7.4,12.1-10.6,18.5-9.4c14.9,2.7,26.1,28.4,42.7,78.1
			c0.8,2.5-0.5,5.2-3,6.1C523.6,919.7,523.1,919.7,522.6,919.7z"/>
		<path className="st3" d="M503.4,929.4c-2,0-3.9-1.3-4.6-3.3l-3.2-9.6C484.5,883,474.9,854,466.3,852c-1.9-0.5-4.5,0.9-7.5,3.9
			c-1.8,1.8-3.1,3.5-3.9,5.1c-1.2,2.4-4.1,3.3-6.4,2.1c-2.4-1.2-3.3-4.1-2.1-6.4c1.2-2.5,3.1-5,5.7-7.5c5.6-5.6,11.2-7.8,16.6-6.5
			c13.8,3.3,22.3,28.7,36.2,70.8l3.2,9.6c0.8,2.5-0.5,5.2-3,6.1C504.4,929.3,503.9,929.4,503.4,929.4z"/>
		<path className="st3" d="M637.6,1529.1c-0.4,0-0.8,0-1.2,0c-23.9-0.3-46.2-10.9-61.1-28.9c-31.5-38.1-66.6-246.4-74.3-300.1
			c-9.6-67.4-36.2-186.7-52.7-244.2c-2.8-10-5.4-18.8-7.7-26.6c-11.8-40.3-16.2-55.4-8.2-65.3c5-6.1,10.2-8.7,15.5-7.7
			c13.9,2.5,22.9,27.8,40.4,80.2l0.3,1c0.8,2.5-0.5,5.2-3,6.1c-2.5,0.8-5.2-0.5-6.1-3l-0.3-1c-12.4-37.1-24.1-72.2-33-73.8
			c-2.1-0.4-4.9,2.5-6.4,4.3c-4.9,6-0.2,21.9,9.9,56.6c2.3,7.9,4.9,16.7,7.8,26.7c16.5,57.9,43.3,177.7,53,245.5
			c12.5,87.7,46.6,264.4,72.2,295.3c13.1,15.8,32.7,25.1,53.8,25.4c22.5,0.3,57.9-9.1,98.5-55.5c65.9-75.3,87.9-118.6,88.2-119
			c1.2-2.4,4.1-3.3,6.4-2.1c2.4,1.2,3.3,4.1,2.1,6.4c-0.9,1.8-22.7,44.6-89.5,121.1C699.9,1518.7,662.2,1529.1,637.6,1529.1z"/>
		<path className="st3" d="M797.5,1398.7c-2.4,0-4.5-1.8-4.8-4.2c-4.8-41-50.9-102.7-104.6-103.8c-2.7-0.1-4.8-2.2-4.7-4.9
			c0.1-2.6,2.1-4.8,4.9-4.7c60.7,1.2,108.7,68.4,113.9,112.3c0.3,2.6-1.6,5-4.2,5.3C797.9,1398.7,797.7,1398.7,797.5,1398.7z"/>
		<path className="st3" d="M572.8,923.9c-21.2,12.4-35.6,33.2-39.1,57.6c-0.9,6,8.4,8.7,9.3,2.6c3.2-22,15.4-40.6,34.7-51.8
			C583,929.1,578.2,920.8,572.8,923.9z"/>
		<path className="st3" d="M576,806.3l-6.5-30.4c-1.3-6-10.5-3.5-9.3,2.6c2.2,10.1,4.3,20.3,6.5,30.4C568,814.9,577.3,812.3,576,806.3z"
			/>
		<path className="st3" d="M616.9,791.5c-8,9.6-16,19.2-24,28.8c-3.9,4.7,2.8,11.5,6.8,6.8c8-9.6,16-19.2,24-28.8
			C627.6,793.6,620.8,786.8,616.9,791.5z"/>
	</g>
	<g id="Head">
		<path className="st3" d="M1148.1,690.5c9.8-9.9,17.9-21.6,18-36c0.1-14.8-8-29-23.1-31.9c-20.6-4.1-43.7,13-59.6,23.9
			c-16.9,11.6-32.1,25.1-45.8,40.3c0.3-5.9-0.9-11.5-4.8-16.5c-7.9-10-19.3-9.4-29.2-2.8c-31.9,21.1-52.3,67.7-63.8,102.5
			c-1.2,3.7,2,6.1,5,5.9c0,0,0,0.1,0.1,0.2c0.8,0.9,1.5,1.7,2.4,2.5c10,2.4,18.5,6.4,23,10.6c0,0-4.8-36.5,50.4-60
			c47.5-20.3,81.4-17.4,103.7,10.7c0.2-0.1,0.4-0.2,0.6-0.4c0.7,0.1,1.4,0,2.3-0.3c14.8-6,40.5-20.9,28.5-41.2
			C1153.9,694.1,1151.1,691.8,1148.1,690.5z"/>
		<path className="st1" d="M1170.8,911.3c-8.3,26.1-33.6,37.2-61.2,42l-1.2,84c0,0,0,49.2-57.6,49.2c-43.2,0-50.4-36-50.4-36
			s3.6-45.6,7.2-117.6c-25.2-12-40.8-55.2-40.8-55.2c-46.8,2.4-93.6-19.2-84-67.2c6.8-34,40.2-37.9,64.6-32.2
			c10,2.4,18.5,6.4,23,10.6c0,0-4.8-36.5,50.4-60c47.5-20.3,81.4-17.4,103.7,10.7c8.2,10.2,14.7,23.9,19.9,40.9
			C1160,832.1,1179.2,884.9,1170.8,911.3z"/>
		<path className="st3" d="M1050.8,1091.4c-46.6,0-55-39.5-55.1-39.9c-0.1-0.4-0.1-0.9-0.1-1.3c0-0.5,3.5-45.1,7-114.4
			c-21.1-12.1-35-42.9-39.1-53.1c-31.8,0.9-59.5-8.8-74.5-26.1c-10.8-12.6-14.7-28.8-11-47c2.7-13.3,9.2-23.4,19.5-30
			c18.4-11.8,41.7-8.1,50.9-5.9c6.6,1.6,12.6,3.8,17.5,6.4c2.1-13.4,11.7-38.1,52.9-55.7c50.2-21.4,86-17.4,109.4,12.1
			c8.5,10.7,15.3,24.6,20.8,42.5c2.2,7.4,4.5,14.7,6.8,22.1c14,45,27.3,87.6,19.6,111.6c0,0,0,0,0,0c-7.4,23.3-27.4,37.9-61.1,44.6
			l-1.1,80.1C1113.2,1037.9,1112.5,1091.4,1050.8,1091.4z M1005.2,1050.2c1.1,4.5,9.4,31.6,45.6,31.6c52.2,0,52.8-42.6,52.8-44.4
			l1.2-84.1c0-2.3,1.7-4.3,4-4.7c32.1-5.6,50.9-18.3,57.5-38.7l0,0c6.7-21.2-6.7-64.2-19.6-105.9c-2.3-7.3-4.6-14.7-6.8-22.1
			c-5-16.5-11.4-29.7-19.1-39.3c-20.6-26.1-51.8-29-98.1-9.3c-51.3,21.8-47.6,54.6-47.5,55c0.3,2-0.8,4-2.5,4.9
			c-1.8,0.9-4,0.6-5.5-0.7c-4-3.7-12-7.3-20.9-9.4c-16.6-3.9-32.9-2.2-43.5,4.6c-8,5.1-13.1,13.1-15.3,23.8
			c-3.1,15.4-0.1,28.5,8.9,38.8c13.4,15.5,40.3,24.2,70.2,22.7c2.1-0.1,4,1.2,4.8,3.2c0.2,0.4,15.2,41.5,38.4,52.5
			c1.7,0.8,2.8,2.6,2.7,4.6C1009,999.5,1005.7,1044,1005.2,1050.2z M1170.8,911.3L1170.8,911.3L1170.8,911.3z"/>
		<path className="st3" d="M1119.2,854.9c-0.7,0-1.4-0.1-2.1-0.5c-2.4-1.1-3.4-4-2.3-6.4c9.5-20,1.2-40-31.6-76.4c-1.8-2-1.6-5,0.3-6.8
			c2-1.8,5-1.6,6.8,0.3c30.9,34.2,46.2,59.4,33.2,86.9C1122.7,853.9,1121,854.9,1119.2,854.9z"/>
		<circle className="st3" cx="1023.2" cy="792.5" r="6"/>
		<circle className="st3" cx="1120.4" cy="773.3" r="6"/>
		<path className="st3" d="M1070,892.7c-12,3.2-23.4-4.9-23.9-17.4c-0.3-6.2-9.9-6.2-9.6,0c0.9,18.7,17.9,31.5,36.1,26.7
			C1078.6,900.4,1076,891.1,1070,892.7z"/>
		<path className="st3" d="M1025.1,760.4c-1.4-2.4-4.2-2.9-6.6-1.7c-2.4,1.2-4.8,2.4-7.2,3.5c-2.3,1.1-3,4.5-1.7,6.6
			c1.4,2.4,4.2,2.9,6.6,1.7c2.4-1.2,4.8-2.4,7.2-3.5C1025.7,765.8,1026.3,762.5,1025.1,760.4z"/>
		<path className="st3" d="M1110.8,737.3h-6c-6.2,0-6.2,9.6,0,9.6h6C1117,746.9,1117,737.3,1110.8,737.3z"/>
		<path className="st3" d="M963.1,841.7c-1.8,0-3.5-1-4.3-2.7c-3.8-7.7-23.6-24.6-39.2-21.4c-2.6,0.5-5.1-1.2-5.7-3.8
			c-0.5-2.6,1.2-5.1,3.8-5.7c20.2-4,44,15.2,49.7,26.6c1.2,2.4,0.2,5.3-2.1,6.4C964.6,841.6,963.9,841.7,963.1,841.7z"/>
	</g>
</g>
<g id="Frame">
	<path className="st4" d="M1234.8,526c-0.4,0-0.8,0-1.2-0.2l-160.5-41.3l-162.1,41.3c-2.6,0.6-5.2-0.9-5.8-3.5c-0.7-2.6,0.9-5.2,3.5-5.8
		l163.3-41.6c0.8-0.2,1.6-0.2,2.4,0l161.7,41.6c2.6,0.7,4.1,3.3,3.5,5.8C1238.9,524.6,1237,526,1234.8,526z"/>
	<path className="st1" d="M719.5,521.2v704.2l710.7-3.2v-701H719.5z M1362,1155H787.6V588.4H1362V1155z"/>
	<path className="st4" d="M719.5,1230.3c-1.3,0-2.5-0.5-3.4-1.4c-0.9-0.9-1.4-2.1-1.4-3.4V521.2c0-2.7,2.1-4.8,4.8-4.8h710.7
		c2.7,0,4.8,2.2,4.8,4.8v701c0,2.6-2.1,4.8-4.8,4.8L719.5,1230.3C719.5,1230.3,719.5,1230.3,719.5,1230.3z M724.3,526v694.6l701-3.2
		V526H724.3z M1362,1159.8H787.6c-2.7,0-4.8-2.2-4.8-4.8V588.4c0-2.7,2.1-4.8,4.8-4.8H1362c2.7,0,4.8,2.1,4.8,4.8V1155
		C1366.8,1157.7,1364.6,1159.8,1362,1159.8z M792.4,1150.2h564.8v-557H792.4V1150.2z"/>
	<path className="st4" d="M781.5,1131.1c-17.3,25.8-40.6,62.4-57.9,88.1c-3.4,5.1,4.9,9.9,8.3,4.8c17.3-25.8,40.6-62.4,57.9-88.1
		C793.3,1130.7,785,1125.9,781.5,1131.1z"/>
	<path className="st4" d="M793.7,590.9c-22.6-24.2-45.3-48.5-67.9-72.7c-4.2-4.5-11,2.3-6.8,6.8c22.6,24.2,45.3,48.5,67.9,72.7
		C791.1,602.3,797.9,595.5,793.7,590.9z"/>
	<path className="st4" d="M1425.5,521.5c-22.2,21.5-44.5,43-66.7,64.5c-4.4,4.3,2.3,11.1,6.8,6.8c22.2-21.5,44.5-43,66.7-64.5
		C1436.8,523.9,1430,517.2,1425.5,521.5z"/>
	<path className="st4" d="M1433,1216.1c-21.1-20.5-49.1-48.6-70.2-69.1c-4.4-4.3-11.2,2.5-6.8,6.8c21.1,20.5,49.1,48.6,70.2,69.1
		C1430.7,1227.2,1437.5,1220.4,1433,1216.1z"/>
	<path className="st4" d="M1325.3,1225.6c2.6-0.8,5.5-1.3,8.7-1.3c0.3,0,0.5,0,0.7,0l-4.2-66.8c-3.2,0-6.4-0.1-9.6-0.3l4.3,68.2
		C1325.3,1225.5,1325.3,1225.5,1325.3,1225.6z"/>
</g>
<g id="Objects">
	<path className="st2" d="M618.2,692.5c-1,0-2-0.3-2.9-1l-127.2-95c-1.3-1-2-2.5-1.9-4.1c0.1-1.6,1-3.1,2.4-3.9l137-79.6
		c2.3-1.3,5.2-0.6,6.6,1.7s0.6,5.2-1.7,6.6l-130.7,76l121.4,90.6c2.1,1.6,2.6,4.6,1,6.7C621.1,691.8,619.7,692.5,618.2,692.5z"/>
	<path className="st2" d="M1511.1,1314.2c-1.7,0-3.3-0.9-4.2-2.4c-1.3-2.3-0.6-5.2,1.7-6.6l65-37.7l-67.5-48.7c-2.1-1.6-2.6-4.6-1.1-6.7
		c1.6-2.1,4.6-2.6,6.7-1.1l73.5,53.1c1.3,1,2.1,2.5,2,4.1c-0.1,1.6-1,3.1-2.4,3.9l-71.4,41.4
		C1512.7,1314,1511.9,1314.2,1511.1,1314.2z"/>
	<path className="st3" d="M1631.8,662.1h-150.5c-2.7,0-4.8-2.2-4.8-4.8c0-2.7,2.2-4.8,4.8-4.8h150.5c2.7,0,4.8,2.1,4.8,4.8
		C1636.6,659.9,1634.4,662.1,1631.8,662.1z"/>
	<path className="st3" d="M1631.8,756.5h-150.5c-2.7,0-4.8-2.1-4.8-4.8s2.2-4.8,4.8-4.8h150.5c2.7,0,4.8,2.1,4.8,4.8
		S1634.4,756.5,1631.8,756.5z"/>
	<path className="st3" d="M1548.5,839.7h-67.2c-2.7,0-4.8-2.1-4.8-4.8s2.2-4.8,4.8-4.8h67.2c2.7,0,4.8,2.1,4.8,4.8
		S1551.2,839.7,1548.5,839.7z"/>
	<path className="st4" d="M1614.5,785.9c-17.1,28.8-34.1,57.6-51.2,86.4c-3.2,5.3,5.1,10.2,8.3,4.8c17.1-28.8,34.1-57.6,51.2-86.4
		C1626,785.4,1617.7,780.6,1614.5,785.9z"/>
	<path className="st5" d="M1629.4,876.5c-13.2,0-24,10.8-24,24s10.8,24,24,24c13.2,0,24-10.8,24-24S1642.6,876.5,1629.4,876.5z
		 M1629.4,914.9c-8,0-14.4-6.5-14.4-14.4s6.5-14.4,14.4-14.4c7.9,0,14.4,6.5,14.4,14.4S1637.3,914.9,1629.4,914.9z"/>
	<path className="st1" d="M371.3,1083c-11.6,0-22.7,2.2-32.8,6.3v10.4c10-4.6,21.1-7.1,32.8-7.1c43.7,0,79.2,35.5,79.2,79.2
		c0,43.7-35.5,79.2-79.2,79.2c-11.7,0-22.8-2.5-32.8-7.1v10.4c10.1,4,21.2,6.3,32.8,6.3c49,0,88.8-39.8,88.8-88.8
		C460.2,1122.8,420.3,1083,371.3,1083z"/>
	<path className="st3" d="M673,598h-44.8c-2.7,0-4.8-2.1-4.8-4.8s2.2-4.8,4.8-4.8H673c2.7,0,4.8,2.1,4.8,4.8S675.7,598,673,598z"/>
	<path className="st6" d="M1313.1,840.5c-6.4,8.8-12.8,17.6-19.2,26.4c-3.6,5,4.7,9.8,8.3,4.8c6.4-8.8,12.8-17.6,19.2-26.4
		C1325.1,840.3,1316.7,835.5,1313.1,840.5z"/>
	<path className="st6" d="M1325.6,857.6l-16.7,26.5c-3.3,5.2,5,10.1,8.3,4.8l16.7-26.5C1337.2,857.2,1328.9,852.4,1325.6,857.6z"/>
	<path className="st6" d="M862.9,1009.3c-4.8-5.6-9.7-11.1-14.5-16.7c-4.1-4.7-10.8,2.1-6.8,6.8c4.8,5.6,9.7,11.1,14.5,16.7
		C860.2,1020.7,866.9,1013.9,862.9,1009.3z"/>
</g>
</svg>
