<?xml version="1.0" encoding="utf-8"?>
<!-- Generator: Adobe Illustrator 21.0.2, SVG Export Plug-In . SVG Version: 6.00 Build 0)  -->
<svg version="1.1" id="Слой_1" xmlns="http://www.w3.org/2000/svg" xmlns:xlink="http://www.w3.org/1999/xlink" x="0px" y="0px"
	 viewBox="0 0 2000 2000" style="enable-background:new 0 0 2000 2000;" xml:space="preserve">
<style type="text/css">
	.st0{fill:#00DA9F;}
	.st1{fill:#FFFFFF;}
	.st2{fill:#F76567;}
	.st3{fill:#FFDF57;}
	.st4{fill:#853EF3;}
	.st5{fill:#201000;}
</style>
<g id="Window_4">
	<rect x="470.3" y="560.6" className="st0" width="1101.2" height="969.9"/>
	<rect x="550.3" y="976.7" className="st1" width="646.6" height="477"/>
	<path className="st2" d="M550.3,1458.5c-1.5,0-2.9-0.7-3.9-2c-1.6-2.1-1.1-5.1,1-6.7l649.8-477c2.1-1.6,5.1-1.1,6.7,1
		c1.6,2.1,1.1,5.1-1,6.7l-649.8,477C552.3,1458.2,551.3,1458.5,550.3,1458.5z"/>
	<path className="st2" d="M1196.9,1458.5c-1,0-2-0.3-2.9-0.9L563.4,990.2c-2.1-1.6-2.6-4.6-1-6.7c1.6-2.1,4.6-2.6,6.7-1l630.6,467.4
		c2.1,1.6,2.6,4.6,1,6.7C1199.8,1457.8,1198.4,1458.5,1196.9,1458.5z"/>
	<path className="st3" d="M662.3,811.9h-66.5c-2.7,0-4.8-2.1-4.8-4.8V680.9c0-2.7,2.1-4.8,4.8-4.8h58.7c2.7,0,4.8,2.1,4.8,4.8
		s-2.1,4.8-4.8,4.8h-53.9v116.6h61.7c2.7,0,4.8,2.1,4.8,4.8S665,811.9,662.3,811.9z"/>
	<path className="st3" d="M1289.7,1430.5h-58.7c-2.7,0-4.8-2.1-4.8-4.8s2.1-4.8,4.8-4.8h53.9v-116.6h-61.7c-2.7,0-4.8-2.1-4.8-4.8
		s2.1-4.8,4.8-4.8h66.5c2.7,0,4.8,2.1,4.8,4.8v126.2C1294.5,1428.4,1292.4,1430.5,1289.7,1430.5z"/>
	<path className="st1" d="M1571.4,1159.2v11.2c-1.1,0-2.3-0.4-3.2-1.2l-357.2-318.9H918.4c-1.6,0-3-0.8-3.9-2c-0.9-1.3-1.1-2.9-0.6-4.4
		L989.7,635l3.4-9.3v0l23.6-65.1h10.2L925.3,840.7h287.6c1.2,0,2.3,0.4,3.2,1.2L1571.4,1159.2z"/>
	<path className="st3" d="M806.4,754.3H700.7c-2.7,0-4.8-2.1-4.8-4.8s2.1-4.8,4.8-4.8h105.6c2.7,0,4.8,2.1,4.8,4.8
		S809,754.3,806.4,754.3z"/>
	<path className="st3" d="M1088.1,754.3h-86.4c-2.7,0-4.8-2.1-4.8-4.8s2.1-4.8,4.8-4.8h86.4c2.7,0,4.8,2.1,4.8,4.8
		S1090.7,754.3,1088.1,754.3z"/>
	<path className="st3" d="M1472.2,754.3h-140.8c-2.7,0-4.8-2.1-4.8-4.8s2.1-4.8,4.8-4.8h140.8c2.7,0,4.8,2.1,4.8,4.8
		S1474.9,754.3,1472.2,754.3z"/>
	<path className="st3" d="M1489.8,981.5h-51.2c-2.7,0-4.8-2.1-4.8-4.8s2.1-4.8,4.8-4.8h51.2c2.7,0,4.8,2.1,4.8,4.8
		S1492.5,981.5,1489.8,981.5z"/>
	<path className="st3" d="M1180.9,815.1c-0.6,0-1.2-0.1-1.8-0.4c-2.5-1-3.6-3.8-2.6-6.3l54.4-131.2c1-2.5,3.8-3.6,6.3-2.6
		c2.5,1,3.6,3.8,2.6,6.3l-54.4,131.2C1184.6,814,1182.8,815.1,1180.9,815.1z"/>
	<path className="st3" d="M1379.4,1169.6h-146.5c-2.7,0-4.8-2.1-4.8-4.8s2.1-4.8,4.8-4.8h146.5c2.7,0,4.8,2.1,4.8,4.8
		S1382,1169.6,1379.4,1169.6z"/>
	<path className="st3" d="M1415.4,1214.4c-0.6,0-1.3-0.1-1.9-0.4c-2.4-1-3.6-3.8-2.6-6.3l41.6-99.2c1-2.4,3.8-3.6,6.3-2.6
		c2.4,1,3.6,3.8,2.6,6.3l-41.6,99.2C1419,1213.3,1417.3,1214.4,1415.4,1214.4z"/>
	<path className="st4" d="M393.4,1423.3c-0.8,0-1.6-0.2-2.4-0.6l-73.6-41.6c-1.4-0.8-2.3-2.3-2.4-3.9c-0.1-1.6,0.7-3.2,2-4.2l80-57.6
		c2.2-1.5,5.2-1.1,6.7,1.1c1.5,2.2,1.1,5.2-1.1,6.7l-73.9,53.2l67.1,37.9c2.3,1.3,3.1,4.2,1.8,6.5
		C396.7,1422.4,395.1,1423.3,393.4,1423.3z"/>
	<path className="st1" d="M990,639l-55.5-78.4h11.8l48.7,68.1l1.3,1.7C997.9,632.6,990.8,640.1,990,639z"/>
</g>
<g id="Window_2">
	<rect x="1273.7" y="493.6" className="st4" width="408.5" height="220.7"/>
	<path className="st1" d="M1682.2,488.8h-408.5c-2.7,0-4.8,2.2-4.8,4.8v220.7c0,2.7,2.2,4.8,4.8,4.8h408.5c2.7,0,4.8-2.2,4.8-4.8V493.6
		C1687,490.9,1684.8,488.8,1682.2,488.8z M1677.4,709.4h-398.9V498.4h398.9V709.4z"/>
	<path className="st1" d="M1344.7,636.9h-40.5c-2.7,0-4.8-2.1-4.8-4.8s2.1-4.8,4.8-4.8h40.5c2.7,0,4.8,2.1,4.8,4.8
		S1347.4,636.9,1344.7,636.9z"/>
	<path className="st1" d="M1387,674.4h-40.5c-2.7,0-4.8-2.1-4.8-4.8s2.1-4.8,4.8-4.8h40.5c2.7,0,4.8,2.1,4.8,4.8
		S1389.7,674.4,1387,674.4z"/>
	<path className="st1" d="M1633.5,645.7H1593c-2.7,0-4.8-2.1-4.8-4.8c0-2.7,2.1-4.8,4.8-4.8h40.5c2.7,0,4.8,2.1,4.8,4.8
		C1638.3,643.5,1636.1,645.7,1633.5,645.7z"/>
	<path className="st1" d="M1506.1,671.5h-40.5c-2.7,0-4.8-2.1-4.8-4.8c0-2.7,2.1-4.8,4.8-4.8h40.5c2.7,0,4.8,2.1,4.8,4.8
		C1510.9,669.4,1508.8,671.5,1506.1,671.5z"/>
	<path className="st1" d="M1613.7,560.8c-1.2-3.2-4.1-4.5-6.8-4.4c-8.5-19.9-19-38.9-29.5-58.1c-1.8-3.2-3.5-6.4-5.2-9.6h-150.2
		c-3.1,3.2-6.2,6.5-9.4,9.6c-14.5,14.5-26.9,31.1-42.8,44.3c-0.8,0.6-1.5,1.1-2.3,1.6c-46,48.6-58.3,65.1-10.8,56.1
		c21.5-14.2,40.6-30.3,63.7-42c8.7-4.4,16.7,2.2,18,9.4c0.1,0.1,0.2,0.2,0.3,0.4c9.8,15,15.3,32.1,21.8,48.6
		c0.3,0.8,0.5,1.6,0.5,2.4c9.1,18.1,16,35,31.2,40.8c8-12-6.2-82.7-7.1-84.2c-0.2-0.4-0.4-0.8-0.7-1.2c-0.1-0.1-3.5-8.6-0.2-11.9
		c3.1-3,8.6-3.3,11.6,0c2.4,2.6,27.6,54.3,28.9,73.6c2.1-0.1,4.3,0.4,6.5,1.7c3.7,2.2,7.5,3.6,11.2,4.3c1.8-3.7,5.9-6,10.1-6.5
		c4.7-0.5,9.3-0.3,14-0.5c10.7-7.2,21.3-17.7,31.2-32.4c0.8-0.1,1.6-0.5,2.4-1C1613.2,593.2,1619.5,576,1613.7,560.8z"/>
	<path className="st5" d="M1489.9,666.6c-2,0-4.4-0.6-7.2-2.1c-11.5-6.4-21-29.3-31-53.7c-8.4-20.3-19.9-48.1-28.2-49
		c-8.1-0.8-27,12.9-42.1,23.9c-23.3,17.1-41.7,30.5-52,21.9c-3.6-3-5.5-6.8-5.6-11.1c-0.4-15.6,31.4-46.3,91.9-102.7
		c1.9-1.8,5-1.7,6.8,0.2c1.8,1.9,1.7,5-0.2,6.8c-49.9,46.5-89.2,83.5-88.9,95.4c0,1.1,0.3,2.4,2.2,4c4.5,3.8,26.9-12.6,40.2-22.3
		c19-13.9,37-27,48.8-25.7c14,1.6,24.2,26.3,36,54.9c8.6,20.7,18.3,44.2,26.8,48.9c1.6,0.9,2.4,0.9,2.6,0.9
		c0.1-0.1,11.4-7.8-16.6-112.8c-0.7-2.6,0.8-5.2,3.4-5.9c2.6-0.7,5.2,0.8,5.9,3.4c29.4,110.3,17.7,119.4,13.2,122.9
		C1494.4,665.6,1492.5,666.6,1489.9,666.6z"/>
	<path className="st5" d="M1538.6,651c-0.9,0-1.8-0.1-2.7-0.3c-12.4-2.8-17.9-24.1-20.4-41.4c-3.7-25.7-35.4-50.6-35.8-50.9
		c-2.1-1.6-2.5-4.6-0.8-6.7c1.6-2.1,4.6-2.5,6.7-0.9c1.4,1.1,35.2,27.5,39.4,57.1c3.6,24.9,10.1,32.8,13,33.4
		c2.1,0.5,5.4-2.2,8.7-7.3c12-18,0.7-50.1-32.7-93c-1.6-2.1-1.3-5.1,0.8-6.7c2.1-1.6,5.1-1.2,6.7,0.8
		c36.6,47.1,47.8,82.2,33.1,104.2C1549.6,647.2,1544.2,651,1538.6,651z"/>
	<path className="st5" d="M1551.9,641.7c-1.1,0-1.8-0.1-2.1-0.2c-2.6-0.5-4.3-3-3.8-5.7c0.5-2.6,3.1-4.3,5.7-3.8l0,0
		c0.1,0,10,0.7,26-17.3c15.9-17.8-4.4-49.5-28.5-83.2c-1.5-2.2-1-5.2,1.1-6.7c2.2-1.5,5.2-1,6.7,1.1c21.1,29.6,50.1,70.1,27.8,95.2
		C1568.6,639.5,1556.6,641.7,1551.9,641.7z"/>
	<path className="st5" d="M1589.4,616.2c-0.3,0-0.7,0-1-0.1c-2-0.3-3.6-1.4-4.5-3c-1.2-2.4-0.2-5.3,2.1-6.4c1.1-0.6,2.4-0.6,3.5-0.3
		c1.6-0.8,6.2-3.8,16.1-15c15.9-17.8-10.4-57.5-34.5-91.2c-1.5-2.2-1-5.2,1.1-6.7c2.2-1.5,5.2-1,6.7,1.1
		c21.2,29.6,56.1,78.1,33.9,103.2C1599.1,613.4,1593.1,616.2,1589.4,616.2z M1592.6,608.8C1592.6,608.8,1592.6,608.8,1592.6,608.8
		C1592.6,608.8,1592.6,608.8,1592.6,608.8z M1592.6,608.8C1592.6,608.8,1592.6,608.8,1592.6,608.8
		C1592.6,608.8,1592.6,608.8,1592.6,608.8z M1592.5,608.6c0,0.1,0.1,0.1,0.1,0.2C1592.5,608.7,1592.5,608.6,1592.5,608.6z"/>
</g>
<g id="Window_3">
	<rect x="1347.4" y="1268" className="st2" width="294.5" height="294.5"/>
	<path className="st1" d="M1641.9,1263.2h-294.5c-2.7,0-4.8,2.1-4.8,4.8v294.5c0,2.7,2.1,4.8,4.8,4.8h294.5c2.7,0,4.8-2.2,4.8-4.8V1268
		C1646.7,1265.4,1644.5,1263.2,1641.9,1263.2z M1637.1,1557.7h-284.9v-284.9h284.9V1557.7z"/>
	<path className="st5" d="M1601.9,1492.1H1389c-1.3,0-2.5-0.5-3.4-1.5s-1.4-2.2-1.4-3.5c0.1-2.2,1.9-53,37.9-84.5
		c21.8-19,51.2-26.6,87.4-22.6c102.9,11.3,97.2,106.6,97.1,107.6C1606.5,1490.2,1604.4,1492.1,1601.9,1492.1z M1394.2,1482.5h203
		c-0.1-18.1-6.3-83.8-88.7-92.9c-33.4-3.7-60.3,3.1-80,20.3C1401.8,1433.1,1395.6,1469.4,1394.2,1482.5z"/>
	<path className="st1" d="M1641.9,1312.1c-1.5,0.3-3.1,0.5-4.8,0.8c-64,10.9-213.9,37.7-235.3,84.7c-10.8,23.9-12.4,41.6-11.2,42.1
		c8.7,3.3,15.3-1.2,20.2-8.4c0.7-1,14.1-23.8,25.1-32.4c6.2-4.8,13.2,1.4,6.9,6.2c-15.7,12.3-21,31.3-20.9,50.4
		c0.1,0.1,0.2,0.2,0.4,0.3c-0.8,4.9,0.1,9.8,4.4,13.7c3.7,3.3,8.8,4,13.3,2c3.2-1.4,5.4-3.7,7.2-6.5c1.7,1.3,2.7,3.5,2.1,6.1
		c-1,4.3,13.6,15.3,20.1,12.7c2.2-7.6,14.1-4.3,11.9,3.3c-2.5,8.7,3.1,13.9,10.6,16.5c3.2-0.4,6.4-1.5,9.5-3.4
		c-0.6-1.5,18.5-34.6,19.9-37.1c7.8-13,20.4-21.8,35.7-22.3c3.1-0.1,47.5-0.6,67.2-3.2c1.2-0.2,2.2,0,3.1,0.4
		c3.4-0.9,6.6-1.8,9.8-2.7c1.6-0.5,3.2-0.9,4.8-1.4c1.7-0.5,3.3-1,4.8-1.5v-121.5C1645.2,1311.6,1643.5,1311.8,1641.9,1312.1z"/>
	<path className="st5" d="M1395.3,1445.5c-0.9,0-1.8-0.1-2.7-0.3c-3.5-0.9-6.2-3.3-7.6-6.9c-3.8-9.7,2.5-28.3,16.8-49.7
		c39.1-58.7,176.8-73.1,234.2-76.6c2.6-0.2,4.9,1.9,5.1,4.5c0.2,2.6-1.9,4.9-4.5,5.1c-43.7,2.6-189,15.7-226.8,72.3
		c-14.7,22-17.5,36.5-15.8,40.9c0.3,0.8,0.7,0.9,1,1c3.2,0.7,11.3-9.9,16.6-17c10.5-13.9,23.4-31.2,40.2-31.2c0.4,0,0.7,0,1.1,0
		c2.6,0.1,4.7,2.4,4.6,5c-0.1,2.7-2.6,4.8-5,4.6c-12.2-0.5-23.3,14.3-33.1,27.4C1410.9,1435.7,1403.6,1445.5,1395.3,1445.5z"/>
	<path className="st5" d="M1434.5,1477.5c-1.7,0-3.4-0.4-5-1.2c-8.6-4.1-12.6-17.4-9.2-30.9c5.7-23,19.5-56,72.5-77.7
		c2.5-1,5.3,0.2,6.3,2.6c1,2.5-0.2,5.3-2.6,6.3c-48.9,20-61.5,50.2-66.8,71.1c-2.6,10.4,0.7,18.4,4,19.9c1.2,0.6,2.7-0.2,4.3-2.4
		c6.9-9.2,16.3-26.8,16.4-27c1.3-2.3,4.2-3.2,6.5-2c2.3,1.2,3.2,4.2,2,6.5c-0.4,0.8-9.9,18.4-17.2,28.2
		C1442.5,1475.2,1438.5,1477.5,1434.5,1477.5z"/>
	<path className="st5" d="M1463,1490.7c-2.2,0-4.4-0.6-6.4-1.8c-7.6-4.5-10.5-16-7.4-29.1c5.4-22.9,18.7-55.8,72.5-77.8
		c2.4-1,5.3,0.2,6.3,2.6c1,2.5-0.2,5.3-2.6,6.3c-49.6,20.3-61.9,50.3-66.8,71.1c-2.3,9.6-0.2,16.8,3,18.7c2,1.2,4.3-0.3,6-1.7
		c10.7-9.5,15.8-18,15.9-18.1c1.4-2.3,4.3-3,6.6-1.7c2.3,1.4,3,4.3,1.7,6.6c-0.2,0.4-5.8,9.8-17.7,20.4
		C1470.4,1489.1,1466.6,1490.7,1463,1490.7z"/>
	<path className="st5" d="M1492.5,1505.8c-1.6,0-3.3-0.3-4.8-1c-7.1-3-13.3-13.6-7.3-33.3c0.7-2.3,1.3-4.6,1.9-7.1
		c4.7-18.3,11.1-43.3,59.7-63.2c2.5-1,5.3,0.2,6.3,2.6c1,2.5-0.2,5.3-2.6,6.3c-44.1,18-49.6,39.5-54,56.7c-0.7,2.6-1.3,5.1-2,7.5
		c-4.1,13.5-1,20.5,1.9,21.7c2,0.8,4.4-0.7,6.2-3.8c6-10.8,15.6-27.7,15.6-27.7c0.1-0.2,0.2-0.4,0.4-0.6
		c18.2-23.4,35.5-27.1,62.8-25.9c25.2,1.2,57.9-10.4,58.2-10.5c2.5-0.9,5.2,0.4,6.1,2.9c0.9,2.5-0.4,5.2-2.9,6.1
		c-1.4,0.5-34.8,12.4-61.8,11.1c-25-1.2-38.8,1.8-54.6,21.9c-1.3,2.3-9.9,17.3-15.4,27.3C1502.8,1502.6,1497.7,1505.8,1492.5,1505.8
		z"/>
	<path className="st1" d="M1408.6,1527.3H1381c-2.7,0-4.8-2.1-4.8-4.8s2.1-4.8,4.8-4.8h27.6c2.7,0,4.8,2.1,4.8,4.8
		S1411.2,1527.3,1408.6,1527.3z"/>
	<path className="st1" d="M1600.7,1530.1H1573c-2.7,0-4.8-2.1-4.8-4.8s2.1-4.8,4.8-4.8h27.6c2.7,0,4.8,2.1,4.8,4.8
		S1603.3,1530.1,1600.7,1530.1z"/>
	<path className="st1" d="M1462.6,1541.3H1435c-2.7,0-4.8-2.1-4.8-4.8s2.1-4.8,4.8-4.8h27.6c2.7,0,4.8,2.1,4.8,4.8
		S1465.3,1541.3,1462.6,1541.3z"/>
	<path className="st5" d="M1411.4,1488.9c-0.1,0-0.3,0-0.4,0c-2.6-0.2-4.6-2.5-4.4-5.2c0.1-0.8,1.8-20.6,14.4-39.8
		c1.5-2.2,4.4-2.8,6.6-1.4c2.2,1.4,2.9,4.4,1.4,6.6c-11.2,17.1-12.8,35.2-12.8,35.4C1416,1487,1413.9,1488.9,1411.4,1488.9z"/>
	<path className="st5" d="M1633.9,1492.1h-32c-2.7,0-4.8-2.1-4.8-4.8c0-2.7,2.1-4.8,4.8-4.8h32c2.7,0,4.8,2.1,4.8,4.8
		C1638.7,1490,1636.5,1492.1,1633.9,1492.1z"/>
</g>
<g id="Window_1">
	<rect x="217.4" y="824.7" className="st3" width="485" height="456.2"/>
	<path className="st1" d="M702.3,1285.6h-485c-2.7,0-4.8-2.1-4.8-4.8V824.7c0-2.7,2.1-4.8,4.8-4.8h485c2.7,0,4.8,2.1,4.8,4.8v456.2
		C707.1,1283.5,705,1285.6,702.3,1285.6z M222.2,1276h475.4V829.5H222.2V1276z"/>
	<path className="st1" d="M506.3,907c30.4,79.8,92.6,154.8,74.1,190.1s-61.5,36-61.5,36l-0.6,75.7c-8.7,63.7-76.8,43.2-92.1-0.4
		l7.4-83.4c0,0-52.4-9-81.2-87.1c-12.3-33.2-10.2-71.1,6.1-100.3C385.2,889.6,471.8,842.2,506.3,907z"/>
	<path className="st5" d="M480.3,1254c-24.2,0-49.8-18.9-58.6-44.1c-0.2-0.6-0.3-1.3-0.2-2l7-79.3c-13.6-4-55.6-21.5-80.6-89.1
		c-12.9-34.9-10.5-73.9,6.4-104.3c17.4-31.2,61-64.7,101.5-64.7c0.2,0,0.5,0,0.7,0c23.6,0.2,42.3,12,54.1,34.1
		c0.1,0.2,0.2,0.4,0.2,0.5c11,29,26.7,58.1,40.5,83.7c25.8,47.9,46.2,85.7,33.3,110.4c-16.2,30.8-48.7,37-61,38.2l-0.6,71.3
		c0,0.2,0,0.4,0,0.6c-3.6,26.1-17.5,42.3-38.2,44.3C483.3,1254,481.8,1254,480.3,1254z M431.1,1207.8c8.2,21.9,32.2,38.5,52.8,36.5
		c16.1-1.6,26.6-14.3,29.6-35.8l0.6-75.4c0-2.6,2.1-4.7,4.7-4.8c0.4,0,40.3-1.1,57.3-33.4c10.6-20.1-9.7-57.8-33.3-101.4
		c-13.9-25.8-29.7-55-40.9-84.5c-10.2-18.9-25.5-28.6-45.5-28.8c-0.2,0-0.4,0-0.6,0c-35.9,0-77,30.8-93.1,59.7
		c-15.6,28-17.7,64-5.8,96.3c27.5,74.6,77,83.9,77.5,84c2.5,0.4,4.2,2.7,4,5.2L431.1,1207.8z"/>
	<path className="st5" d="M352.4,1037.9c-12.3-33.2-10.2-71.1,6.1-100.3c19.8-35.5,72.3-70.7,112.3-60.3c-19.7,11.1-35.5,27.6-40.5,51.4
		c-5.4,25.9,0.8,53.8,9.8,80.2c-0.4,5.7-0.5,11.2-0.1,16.6c1.6,26.2,18.7,64,4.1,89c-3.7,6.3-4.8,11.8-10.7,15.1
		C420.6,1125.7,376.4,1103,352.4,1037.9z"/>
	<path className="st1" d="M529.3,949.2c35.5,34.4,55,45.2,41,72.9"/>
	<path className="st5" d="M570.2,1026.9c-0.7,0-1.5-0.2-2.2-0.5c-2.4-1.2-3.3-4.1-2.1-6.5c9.8-19.4,2.4-27.5-24.8-52.9
		c-4.6-4.3-9.7-9.1-15.2-14.4c-1.9-1.8-2-4.9-0.1-6.8c1.9-1.9,4.9-2,6.8-0.1c5.4,5.3,10.5,10,15.1,14.2c26,24.3,40.3,37.6,26.8,64.3
		C573.7,1025.9,572,1026.9,570.2,1026.9z"/>
	<path className="st1" d="M442.4,999.7c-46.4-12.6-69.8,15.2-67.6,37.5c3.7,37,38.9,50,88.4,28.3"/>
	<path className="st5" d="M419.5,1080.8c-10.7,0-20.2-2.3-28-6.9c-12.4-7.3-19.9-19.8-21.5-36.3c-1.2-12.5,4.2-25.2,14.7-34
		c8.2-7,26.9-17.4,59-8.6c2.6,0.7,4.1,3.3,3.4,5.9c-0.7,2.6-3.3,4.1-5.9,3.4c-20.7-5.6-38.5-3.3-50.2,6.7
		c-7.9,6.7-12.2,16.5-11.3,25.7c1.3,13.3,7.1,23.3,16.8,29c15,8.8,38.1,7.2,64.9-4.6c2.4-1.1,5.3,0,6.3,2.5c1.1,2.4,0,5.3-2.5,6.3
		C448.5,1077.1,433,1080.8,419.5,1080.8z"/>
	<path className="st5" d="M411.2,1030.6c10.8-4.8,22.8-2.6,31.2,5.6c4.4,4.3-2.8,10.6-7.2,6.4c-5.2-5.1-13.1-6.3-19.7-3.4
		C409.9,1041.8,405.6,1033.2,411.2,1030.6z"/>
	<path className="st5" d="M510.9,958.7c6.8-1.3,8.9,9.3,2.1,10.6C506.2,970.6,504.1,960,510.9,958.7z"/>
	<path className="st5" d="M494.5,944.4c3-1.4,6-2.8,9-4.2c5.6-2.6,9.9,6,4.3,8.6c-3,1.4-6,2.8-9,4.2C493.2,955.6,488.9,947,494.5,944.4z
		"/>
	<path className="st5" d="M556.3,1053.2c-5.9-3.3-12.5-2.8-17.7,1.5c-4.7,4-10.6-3.6-5.9-7.6c7.6-6.3,18.6-7.6,27.3-2.8
		C565.3,1047.3,561.7,1056.2,556.3,1053.2z"/>
	<path className="st5" d="M427,1203.7c-6.1-1.1-12.2-2.2-18.2-3.2c-56.8-10.3-105.8-19.1-138.1,6.6c-17,13.5-27.8,35.9-32.9,68.1
		c-0.5,2.9,1.8,5.5,4.7,5.5l0,0c2.4,0,4.4-1.7,4.7-4.1c4.6-29.6,14.3-50,29.4-62c28.9-23,76-14.5,130.4-4.7c6,1.1,12.1,2.2,18.2,3.3
		c2.6,0.4,5.1-1.3,5.6-3.9S429.6,1204.1,427,1203.7z"/>
	<path className="st5" d="M667.1,1285.6c-2.4,0-4.5-1.8-4.8-4.3c0-0.4-5-43.3-32-67.4c-22-19.6-87.4-7-110.8-0.6
		c-2.6,0.7-5.2-0.8-5.9-3.3c-0.7-2.6,0.8-5.2,3.3-5.9c3.6-1,89.3-24.4,119.7,2.6c29.9,26.5,35,71.6,35.2,73.5c0.3,2.6-1.6,5-4.3,5.3
		C667.5,1285.6,667.3,1285.6,667.1,1285.6z"/>
	<path className="st5" d="M481.5,891.9c34.3-43.6-3.5-82.7-59.6-21.4s-51.7,85.3-12.5,74.2S481.5,891.9,481.5,891.9z"/>
</g>
</svg>
